<svg width="391" height="339" viewBox="0 0 391 339" fill="none" xmlns="http://www.w3.org/2000/svg">
<path d="M372.656 241.791C391.079 195.7 397.212 141.238 381.801 93.4877C363.822 37.7649 313.26 5.76209 255.037 0.553624C215.446 -2.98504 174.827 12.0764 151.832 44.7537C138.093 64.2938 127.398 86.7532 109.374 103.042C91.4057 119.287 66.6175 122.549 45.1395 132.258C24.3148 141.669 11.428 159.008 5.19495 180.417C-2.26697 206.05 -0.517738 234.172 10.0773 258.732C26.6508 297.149 62.2444 321.765 103.152 330.302C154.267 340.962 212.169 340.873 263.395 330.501C314.511 320.15 353.503 289.707 372.656 241.802V241.791Z" fill="#17ABBF"/>
<path opacity="0.7" d="M372.656 241.791C391.079 195.7 397.212 141.238 381.801 93.4877C363.822 37.7649 313.26 5.76209 255.037 0.553624C215.446 -2.98504 174.827 12.0764 151.832 44.7537C138.093 64.2938 127.398 86.7532 109.374 103.042C91.4057 119.287 66.6175 122.549 45.1395 132.258C24.3148 141.669 11.428 159.008 5.19495 180.417C-2.26697 206.05 -0.517738 234.172 10.0773 258.732C26.6508 297.149 62.2444 321.765 103.152 330.302C154.267 340.962 212.169 340.873 263.395 330.501C314.511 320.15 353.503 289.707 372.656 241.802V241.791Z" fill="white"/>
</svg>
