<svg width="145" height="269" viewBox="0 0 145 269" fill="none" xmlns="http://www.w3.org/2000/svg">
<path opacity="0.15" d="M73.5719 267.611C95.0946 267.611 112.542 264.591 112.542 260.866C112.542 257.14 95.0946 254.12 73.5719 254.12C52.0492 254.12 34.6016 257.14 34.6016 260.866C34.6016 264.591 52.0492 267.611 73.5719 267.611Z" fill="black"/>
<path d="M49.6789 247.85C49.6789 247.85 43.4016 257.438 43.778 260.014C44.1433 262.591 51.1624 265.543 53.3766 266.649C55.5909 267.755 69.618 269.226 71.4558 267.014C73.3046 264.802 68.8762 264.061 66.2855 262.956C63.706 261.85 57.0633 256.321 57.0633 256.321L56.3215 250.051L49.6789 247.839V247.85Z" fill="#263238" stroke="#263238" stroke-miterlimit="10"/>
<path d="M71.4455 267.025C72.0212 266.328 71.988 265.786 71.5784 265.322C67.3603 265.731 60.9058 266.096 56.3113 265.178C50.9418 264.105 46.1591 260.5 43.9559 258.609C43.7899 259.173 43.7124 259.66 43.7677 260.014C44.1331 262.59 51.1522 265.543 53.3664 266.649C55.5806 267.755 69.6077 269.225 71.4455 267.014V267.025Z" fill="white" stroke="#263238" stroke-linecap="round" stroke-linejoin="round"/>
<path d="M88.0532 240.85C88.0532 240.85 81.4105 248.226 82.883 250.437C84.3554 252.649 89.1603 251.908 92.1052 254.496C95.0612 257.072 99.4896 260.39 103.918 261.871C108.347 263.353 112.033 260.766 110.195 259.295C108.347 257.824 99.8661 250.448 99.1243 247.872C98.3825 245.295 98.3825 241.237 98.3825 241.237L88.0532 240.872V240.85Z" fill="#263238" stroke="#263238" stroke-miterlimit="10"/>
<path d="M110.438 260.843C108.8 260.987 106.608 260.81 104.659 260.379C101.338 259.638 96.9093 254.85 92.4809 251.532C89.7242 249.464 85.5503 248.978 82.7826 248.9C82.6386 249.52 82.6387 250.05 82.8933 250.426C84.3657 252.638 89.1706 251.897 92.1155 254.485C95.0604 257.072 99.5 260.379 103.928 261.861C106.962 262.867 109.641 261.982 110.438 260.843Z" fill="white" stroke="#263238" stroke-linecap="round" stroke-linejoin="round"/>
<path d="M69.9952 125.412C69.9952 125.412 64.681 144.61 65.7882 150.139C66.8953 155.668 74.4015 201.405 74.4015 201.405L49.6797 247.85L58.9019 253.014C58.9019 253.014 91.3735 210.628 91.7499 205.464C92.1153 200.299 93.001 160.257 93.001 160.257L114.269 198.453L86.5908 240.474C86.5908 240.474 91.0192 244.157 93.9752 244.157H98.769C98.769 244.157 133.831 200.664 134.197 198.077C134.562 195.5 110.615 143.194 110.615 143.194L109.132 131.295L70.0173 125.401L69.9952 125.412Z" fill="#17ABBF" stroke="#263238" stroke-linecap="round" stroke-linejoin="round"/>
<path d="M77.3029 138.683C77.3029 138.683 79.9821 145.119 77.5686 148.602C75.1551 152.085 70.3281 153.423 70.3281 153.423" stroke="#263238" stroke-linecap="round" stroke-linejoin="round"/>
<path d="M92.9902 160.257L105.467 149.133" stroke="#263238" stroke-linecap="round" stroke-linejoin="round"/>
<path d="M101.736 140.573L99.7658 144.798C99.7658 144.798 105.124 146.202 102.866 148.745C100.607 151.289 99.2012 151.565 99.2012 151.565" stroke="#263238" stroke-linecap="round" stroke-linejoin="round"/>
<path d="M93.9316 160.125L103.597 154.23" stroke="#263238" stroke-linecap="round" stroke-linejoin="round"/>
<path d="M70.5935 138.683C70.5935 138.683 69.2539 147.529 69.2539 151.809" stroke="#263238" stroke-linecap="round" stroke-linejoin="round"/>
<path d="M56.0128 245.915L54.4961 248.547" stroke="#263238" stroke-linecap="round" stroke-linejoin="round"/>
<path d="M70.328 157.172C70.328 157.172 76.2288 198.972 76.7713 200.31C77.3138 201.648 79.4506 201.648 78.9191 202.721C78.3877 203.794 76.7713 204.601 76.7713 204.601L78.1109 207.554L58.1719 242.177" stroke="#263238" stroke-linecap="round" stroke-linejoin="round"/>
<path d="M94.3744 237.665L92.0605 241.303" stroke="#263238" stroke-linecap="round" stroke-linejoin="round"/>
<path d="M96.0781 159.848C96.0781 159.848 114.323 190.656 117.003 195.212C119.682 199.768 123.446 197.623 122.372 199.226C121.298 200.83 117.279 201.637 117.279 201.637L96.532 234.27" stroke="#263238" stroke-linecap="round" stroke-linejoin="round"/>
<path d="M68.3008 133.551C68.6993 133.85 69.3304 134.237 70.3489 134.746C73.2939 136.216 74.5227 136.946 74.5227 136.946L75.5081 132.047L79.1837 132.777L78.6966 136.946C78.6966 136.946 78.2094 137.93 83.1139 138.174C88.0184 138.417 89.4909 139.401 89.4909 139.401L90.4762 133.773L94.1518 133.529V139.899C94.1518 139.899 99.5434 139.899 102.732 139.412C105.92 138.926 107.88 137.455 107.88 137.455V133.043L105.876 130.842L70.0057 125.435C70.0057 125.435 69.2197 129.758 68.3118 133.573L68.3008 133.551Z" fill="#263238"/>
<path d="M99.5332 135.962V139.39C99.5332 139.39 102.722 139.147 105.91 137.919L106.397 134.978C106.397 134.978 100.762 135.464 99.5332 135.962Z" fill="white" stroke="#263238" stroke-linecap="round" stroke-linejoin="round"/>
<path d="M133.211 135.244L127.498 135.73L123.092 140.95C123.092 140.95 127.343 144.378 129.624 146.501C131.915 148.624 133.875 150.582 135.669 150.095C137.462 149.608 143.673 141.116 143.673 139.158C143.673 137.201 136.654 133.607 133.222 135.244H133.211Z" fill="white" stroke="#263238" stroke-linecap="round" stroke-linejoin="round"/>
<path d="M129.779 136.869C129.779 136.869 131.418 135.078 133.211 134.094C135.005 133.11 137.131 132.955 139.256 134.26C141.382 135.565 141.703 136.869 140.563 138.34C139.422 139.811 135.005 145.031 134.684 143.726C134.363 142.421 136.322 138.34 136.322 138.34C136.322 138.34 133.71 144.378 130.111 140.463" fill="white"/>
<path d="M129.779 136.869C129.779 136.869 131.418 135.078 133.211 134.094C135.005 133.11 137.131 132.955 139.256 134.26C141.382 135.565 141.703 136.869 140.563 138.34C139.422 139.811 135.005 145.031 134.684 143.726C134.363 142.421 136.322 138.34 136.322 138.34C136.322 138.34 133.71 144.378 130.111 140.463" stroke="#263238" stroke-linecap="round" stroke-linejoin="round"/>
<path d="M134.517 148.779C134.517 148.779 131.904 146.335 131.904 145.185C131.904 144.035 135.336 141.104 135.336 141.104" stroke="#263238" stroke-linecap="round" stroke-linejoin="round"/>
<path d="M126.181 132.634L129.458 135.244L124.066 141.602L121.121 138.826L126.181 132.634Z" fill="white" stroke="#263238" stroke-linecap="round" stroke-linejoin="round"/>
<path d="M110.017 117.738L127.487 132.545L120.236 139.8L105.4 129.913L110.017 117.738Z" fill="#17ABBF" stroke="#263238" stroke-linecap="round" stroke-linejoin="round"/>
<path d="M84.7977 61.5172C84.7977 61.5172 76.284 66.0622 74.9002 73.5818C73.5163 81.0904 69.3535 123.455 69.3535 127.215C69.3535 130.974 80.0371 135.519 89.3479 135.719C98.6477 135.918 108.147 135.719 109.542 132.556C110.926 129.393 113.704 93.3541 112.52 83.0809C111.335 72.7967 108.756 67.0685 105.003 64.4919C101.238 61.9263 89.9568 58.5646 84.8088 61.5282L84.7977 61.5172Z" fill="white" stroke="#263238" stroke-linecap="round" stroke-linejoin="round"/>
<path d="M73.0957 127.259C73.0957 127.259 94.3301 118.854 102.744 107.52" stroke="#263238" stroke-linecap="round" stroke-linejoin="round"/>
<path d="M71.6348 129.813C71.6348 129.813 83.7133 131.638 97.9951 126.518" stroke="#263238" stroke-linecap="round" stroke-linejoin="round"/>
<path d="M87.9631 43.3267C87.9631 43.3267 87.9853 43.6917 88.0185 44.333C88.096 46.1245 88.2067 50.0613 87.7639 54.0091L87.166 59.3502L102.212 63.6962C102.212 63.6962 102.81 60.5335 104.193 55.9885C105.577 51.4436 108.345 46.8986 108.345 46.8986C108.345 46.8986 101.415 44.7201 97.4622 41.3584C93.4987 37.9966 89.347 39.1799 87.9631 43.3378V43.3267Z" fill="white" stroke="#263238" stroke-linecap="round" stroke-linejoin="round"/>
<path d="M102.612 15.4594C102.612 15.4594 106.963 12.0977 104.394 5.57329C101.826 -0.95112 90.9316 -0.154921 86.9792 2.60966C83.0268 5.37424 84.9974 7.15463 87.1784 7.35368C89.3594 7.55273 90.3448 9.91921 87.577 10.7154C84.8092 11.5116 81.6429 9.53217 77.0816 14.4752C72.5313 19.4183 76.8823 23.7642 77.6794 22.581C78.4765 21.3977 79.8604 18.6221 80.2479 20.4025C80.6465 22.1829 76.2845 24.5494 75.6977 30.0896C75.0998 35.6298 80.2479 41.159 83.6135 43.9346C86.9792 46.6992 91.3301 47.4954 93.3118 44.9188C95.2936 42.3533 97.2753 37.9963 99.4452 35.2317C101.626 32.4671 99.0467 25.7437 98.2606 23.1671C97.4635 20.6015 102.612 15.4594 102.612 15.4594Z" fill="#263238" stroke="#263238" stroke-linecap="round" stroke-linejoin="round"/>
<path d="M92.7129 38.1954C92.7129 38.1954 89.9451 34.0485 87.3656 35.4308C84.7971 36.8131 87.3656 42.5523 89.7459 44.3327C92.1262 46.1131 95.2925 43.3485 95.2925 43.3485C95.2925 43.3485 100.042 50.072 103.607 50.072C107.172 50.072 118.055 49.4748 118.852 45.9251C119.649 42.3644 113.903 30.6978 113.903 30.6978C113.903 30.6978 115.685 28.5193 115.486 27.137C115.287 25.7548 111.523 26.3408 110.737 25.7548C109.94 25.1576 107.969 20.0265 105.589 17.2509C103.208 14.4753 102.024 14.4863 102.024 14.4863C102.024 14.4863 89.5577 20.8117 92.3254 22.7911C95.0932 24.7706 96.0896 22.9902 95.8903 24.3725C95.691 25.7548 91.3401 30.8969 92.1262 31.494C92.9233 32.0912 95.691 33.6725 95.2925 35.4529C94.8939 37.2333 95.0932 38.8146 92.724 38.2175L92.7129 38.1954Z" fill="white" stroke="#263238" stroke-linecap="round" stroke-linejoin="round"/>
<path d="M108.855 26.2415C109.331 27.3805 109.32 28.4752 108.822 28.6743C108.324 28.8733 107.538 28.1324 107.062 26.9934C106.586 25.8544 106.597 24.7596 107.095 24.5606C107.593 24.3505 108.379 25.1025 108.855 26.2415Z" fill="#263238"/>
<path d="M107.128 22.2937C107.128 22.2937 104.205 21.4311 103.01 23.6649" stroke="#263238" stroke-linecap="round" stroke-linejoin="round"/>
<path d="M113.826 35.8398C113.826 35.8398 112.453 37.388 110.217 36.0168" stroke="#263238" stroke-linecap="round" stroke-linejoin="round"/>
<path d="M57.2527 88.0794C57.2527 88.0794 37.0257 88.1789 32.8741 88.8535C28.7224 89.5281 33.1841 100.509 33.6048 103.097C34.0255 105.684 57.2527 88.0684 57.2527 88.0684V88.0794Z" fill="#17ABBF" stroke="#263238" stroke-linecap="round" stroke-linejoin="round"/>
<path d="M100.607 66.1283C100.607 66.1283 107.615 73.8691 103.563 84.5625C99.4996 95.2559 76.2503 114.42 63.7067 123.267C51.1632 132.113 38.2432 138.748 38.2432 138.748C38.2432 138.748 24.2161 127.325 20.164 116.632C16.101 105.938 21.249 100.575 36.0179 95.4218C50.7757 90.2576 69.6187 83.8327 72.94 74.61C76.2614 65.3985 80.402 58.4649 87.1886 59.3495C93.9752 60.2342 100.618 66.1283 100.618 66.1283H100.607Z" fill="#17ABBF" stroke="#263238" stroke-linecap="round" stroke-linejoin="round"/>
<path d="M73.6599 115.525C73.6599 115.525 60.0092 120.69 48.1963 124.372C36.3835 128.054 21.6257 127.325 21.991 130.266C22.3564 133.219 30.8479 138.748 32.6968 139.854C34.5457 140.96 38.2323 138.383 42.6608 137.277C47.0892 136.171 67.759 122.901 73.6599 115.525Z" fill="#263238" stroke="#263238" stroke-linecap="round" stroke-linejoin="round"/>
<path d="M28.6671 148.922L27.2168 160.622L29.5639 160.909L30.7595 151.211L50.4993 153.655L49.3037 163.353L51.6397 163.64L53.09 151.941L28.6671 148.922Z" fill="white" stroke="#263238" stroke-linecap="round" stroke-linejoin="round"/>
<path d="M63.3275 163.713L15.8849 157.844C13.0026 157.487 10.3766 159.532 10.0197 162.411L5.88439 195.763C5.52742 198.642 7.57463 201.264 10.4569 201.621L57.8996 207.49C60.7819 207.846 63.4078 205.802 63.7648 202.923L67.9001 169.571C68.2571 166.692 66.2098 164.069 63.3275 163.713Z" fill="white" stroke="#263238" stroke-linecap="round" stroke-linejoin="round"/>
<path d="M10.2441 178.923L63.4187 185.724" stroke="#263238" stroke-linecap="round" stroke-linejoin="round"/>
<path d="M16.7214 159.262L12.459 194.494L15.4703 200.012L19.7327 195.754L24.2608 160.146" fill="white"/>
<path d="M16.7214 159.262L12.459 194.494L15.4703 200.012L19.7327 195.754L24.2608 160.146" stroke="#263238" stroke-linecap="round" stroke-linejoin="round"/>
<path d="M22.535 184.172L12.0859 182.794L11.4281 187.771L21.8772 189.149L22.535 184.172Z" fill="white" stroke="#263238" stroke-linecap="round" stroke-linejoin="round"/>
<path d="M22.2889 186.035L11.8398 184.657L11.6747 185.907L22.1237 187.285L22.2889 186.035Z" fill="white" stroke="#263238" stroke-linecap="round" stroke-linejoin="round"/>
<path d="M53.8978 164.071L49.6133 199.259L52.6246 204.777L56.8981 200.52L61.4151 164.901" fill="white"/>
<path d="M53.8978 164.071L49.6133 199.259L52.6246 204.777L56.8981 200.52L61.4151 164.901" stroke="#263238" stroke-linecap="round" stroke-linejoin="round"/>
<path d="M59.6893 188.931L49.2402 187.554L48.5824 192.531L59.0315 193.909L59.6893 188.931Z" fill="white" stroke="#263238" stroke-linecap="round" stroke-linejoin="round"/>
<path d="M59.4432 190.795L48.9941 189.417L48.829 190.667L59.278 192.045L59.4432 190.795Z" fill="white" stroke="#263238" stroke-linecap="round" stroke-linejoin="round"/>
<path d="M94.3293 69.4458C94.3293 69.4458 90.2663 67.2342 83.6236 67.9751C76.9809 68.716 44.1329 88.6209 39.3391 90.8326C34.5453 93.0443 34.9107 99.6793 34.9107 99.6793L37.8667 142.066H47.0889L52.9898 100.785C52.9898 100.785 95.2815 89.572 96.5989 81.2119" fill="#17ABBF"/>
<path d="M94.3293 69.4458C94.3293 69.4458 90.2663 67.2342 83.6236 67.9751C76.9809 68.716 44.1329 88.6209 39.3391 90.8326C34.5453 93.0443 34.9107 99.6793 34.9107 99.6793L37.8667 142.066H47.0889L52.9898 100.785C52.9898 100.785 95.2815 89.572 96.5989 81.2119" stroke="#263238" stroke-linecap="round" stroke-linejoin="round"/>
<path d="M47.0884 142.065L49.3026 149.806C49.3026 149.806 49.3026 157.182 48.1955 157.912C47.0884 158.642 46.7231 160.124 44.8742 158.653L43.0253 157.182C43.0253 157.182 40.0693 156.441 38.9622 156.441C37.8551 156.441 35.6409 156.441 34.8991 154.595C34.1574 152.748 37.8551 142.065 37.8551 142.065H47.0773H47.0884Z" fill="white" stroke="#263238" stroke-linecap="round" stroke-linejoin="round"/>
<path d="M103.054 69.2582L104.604 76.0701C104.604 76.0701 99.8098 77.9169 93.5325 77.9169C87.2552 77.9169 76.5605 67.9644 69.176 62.4352C61.7916 56.906 54.4183 64.2819 47.7756 66.4936C41.1329 68.7053 35.9627 67.5994 25.6334 63.917C15.304 60.2346 3.85649 68.7053 3.85649 68.7053L0.535156 76.811L10.8645 82.3402C10.8645 82.3402 20.4632 71.6468 27.4712 71.6468C34.4792 71.6468 48.1409 76.811 53.3001 73.8585C58.4703 70.9059 62.5223 65.3767 66.2201 66.1176C69.9067 66.8585 86.1481 83.07 94.2632 83.8109C102.378 84.5518 105.7 78.2818 105.7 78.2818L108.656 69.8C108.656 69.8 103.718 62.8112 103.043 69.2582H103.054Z" fill="#263238" stroke="#263238" stroke-linecap="round" stroke-linejoin="round"/>
<path d="M104.791 63.2979L108.544 63.6959L113.892 72.9849L108.356 68.8381L104.968 70.2093L104.592 67.0577L104.791 63.2979Z" fill="white" stroke="#263238" stroke-linecap="round" stroke-linejoin="round"/>
<path d="M84.3107 52.9912L105.778 61.7162L105.379 70.8172L81.543 59.3166L84.3107 52.9912Z" fill="white" stroke="#263238" stroke-linecap="round" stroke-linejoin="round"/>
</svg>
