<svg width="1009" height="1009" viewBox="0 0 1009 1009" fill="none" xmlns="http://www.w3.org/2000/svg">
<path d="M509.678 54.6102L512.228 10.7015L518.845 11.0858L532.224 43.0697L549.215 12.8495L555.832 13.2338L553.282 57.1425L546.421 56.7441L548.056 28.5998L532.944 55.9614L530.016 55.7914L518.204 26.8662L516.569 55.0104L509.678 54.6102Z" fill="white"/>
<path d="M558.574 57.9308L579.248 16.7078L589.893 18.4198L596.6 64.0463L589.122 62.8436L582.963 21.8838L584.592 22.1457L566.052 59.1335L558.574 57.9308ZM567.716 49.7491L568.807 42.964L591.605 46.6304L590.514 53.4155L567.716 49.7491Z" fill="white"/>
<path d="M600.388 65.0612L611.149 22.4153L628.77 26.8618C629.185 26.9664 629.713 27.1207 630.354 27.3245C631.001 27.5087 631.588 27.7199 632.116 27.9581C634.489 28.956 636.316 30.2885 637.596 31.9556C638.896 33.6277 639.687 35.5283 639.969 37.6575C640.276 39.7719 640.132 42.0038 639.54 44.3533C638.663 47.8282 637.029 50.5976 634.639 52.6616C632.255 54.7059 629.171 55.5659 625.389 55.2415L622.271 54.7383L611.284 51.9658L607.525 66.8622L600.388 65.0612ZM624.879 71.2414L620.848 51.7646L628.507 51.9962L632.964 73.2816L624.879 71.2414ZM612.965 45.3024L623.153 47.8731C623.548 47.9727 623.997 48.0651 624.501 48.1501C625.004 48.2352 625.478 48.2708 625.923 48.257C627.182 48.2597 628.242 47.9707 629.103 47.3898C629.983 46.814 630.681 46.087 631.196 45.2091C631.732 44.3361 632.114 43.4456 632.343 42.5374C632.572 41.6292 632.658 40.6639 632.601 39.6414C632.569 38.6043 632.302 37.6234 631.8 36.6987C631.318 35.7791 630.522 35.0217 629.413 34.4267C629.028 34.2036 628.591 34.0199 628.103 33.8756C627.619 33.7116 627.18 33.5797 626.785 33.4801L616.597 30.9094L612.965 45.3024Z" fill="white"/>
<path d="M638.316 75.089L652.677 33.5168L659.635 35.9202L652.973 55.2051L676.235 41.6546L684.78 44.6065L659.869 58.8153L671.632 86.5976L662.798 83.5459L651.976 58.0921L645.274 77.4924L638.316 75.089Z" fill="white"/>
<path d="M672.942 87.4636L690.607 47.1842L716.62 58.5929L713.848 64.9145L694.575 56.4623L690.22 66.3923L706.136 73.3724L703.364 79.694L687.448 72.7139L682.455 84.0984L701.728 92.5506L698.955 98.8722L672.942 87.4636Z" fill="white"/>
<path d="M714.682 107.094L732.213 74.4201L719.672 67.6904L722.935 61.6079L754.505 78.5475L751.242 84.6301L738.7 77.9004L721.168 110.574L714.682 107.094Z" fill="white"/>
<path d="M744.313 123.861L780.64 95.451L789.528 101.554L776.064 145.662L769.82 141.374L781.782 101.719L783.142 102.653L750.557 128.148L744.313 123.861ZM756.077 120.379L759.967 114.713L779.003 127.783L775.113 133.449L756.077 120.379Z" fill="white"/>
<path d="M790.14 158.578C787.652 156.539 785.763 154.267 784.472 151.761C783.198 149.269 782.573 146.69 782.598 144.025C782.652 141.358 783.416 138.772 784.889 136.267L791.531 140.21C790.383 142.639 790.136 145.043 790.792 147.423C791.463 149.816 792.823 151.852 794.87 153.53C796.083 154.524 797.38 155.271 798.76 155.77C800.141 156.27 801.459 156.429 802.714 156.246C803.985 156.077 805.053 155.464 805.918 154.409C806.305 153.937 806.581 153.439 806.746 152.916C806.924 152.378 806.985 151.822 806.928 151.249C806.887 150.689 806.726 150.082 806.444 149.43C806.191 148.775 805.827 148.095 805.352 147.39L798.693 137.589C798.118 136.749 797.538 135.787 796.953 134.702C796.396 133.614 795.989 132.424 795.731 131.133C795.501 129.839 795.547 128.482 795.87 127.061C796.22 125.637 797.009 124.177 798.235 122.681C800.029 120.492 802.084 119.109 804.4 118.532C806.744 117.952 809.156 118.06 811.637 118.856C814.134 119.665 816.525 121.019 818.812 122.919C821.13 124.845 822.879 126.95 824.061 129.235C825.255 131.504 825.86 133.882 825.875 136.369C825.891 138.856 825.292 141.354 824.079 143.862L817.089 139.91C817.818 138.507 818.163 137.091 818.122 135.662C818.111 134.231 817.766 132.869 817.088 131.576C816.425 130.296 815.524 129.163 814.385 128.176C813.264 127.231 812.067 126.54 810.793 126.102C809.549 125.661 808.356 125.526 807.215 125.697C806.091 125.881 805.167 126.414 804.444 127.296C803.76 128.131 803.45 129.022 803.516 129.971C803.594 130.903 803.874 131.831 804.356 132.752C804.866 133.671 805.424 134.549 806.028 135.386L810.729 142.082C811.383 142.987 812.074 144.054 812.804 145.284C813.534 146.513 814.102 147.861 814.507 149.325C814.913 150.79 814.971 152.325 814.682 153.931C814.408 155.549 813.575 157.209 812.181 158.91C810.735 160.674 809.094 161.922 807.256 162.654C805.448 163.383 803.56 163.679 801.593 163.541C799.626 163.404 797.658 162.897 795.691 162.021C793.739 161.159 791.888 160.011 790.14 158.578Z" fill="white"/>
<path d="M807.504 172.148L838.135 140.585L851.177 153.241C851.484 153.539 851.864 153.936 852.318 154.434C852.786 154.916 853.189 155.393 853.527 155.863C855.084 157.913 856.001 159.98 856.277 162.064C856.568 164.162 856.303 166.204 855.483 168.189C854.692 170.173 853.453 172.035 851.765 173.774C850.092 175.498 848.268 176.793 846.294 177.658C844.334 178.508 842.301 178.819 840.195 178.591C838.104 178.378 836.018 177.531 833.936 176.05C833.47 175.711 832.975 175.316 832.45 174.863C831.939 174.424 831.538 174.063 831.245 173.779L823.486 166.249L812.787 177.274L807.504 172.148ZM828.272 161.317L835.812 168.635C836.105 168.918 836.448 169.223 836.841 169.548C837.235 169.873 837.628 170.141 838.02 170.351C839.109 170.983 840.172 171.262 841.207 171.189C842.258 171.13 843.226 170.849 844.111 170.346C845.011 169.858 845.787 169.277 846.439 168.605C847.091 167.933 847.648 167.14 848.11 166.226C848.6 165.311 848.859 164.328 848.886 163.276C848.928 162.239 848.618 161.185 847.953 160.115C847.732 159.73 847.445 159.352 847.094 158.983C846.757 158.599 846.443 158.266 846.15 157.982L838.61 150.665L828.272 161.317Z" fill="white"/>
<path d="M834.143 198.569L867.218 169.577L885.942 190.937L880.751 195.487L866.879 179.662L858.725 186.81L870.181 199.879L864.991 204.429L853.534 191.36L844.186 199.554L858.059 215.379L852.868 219.93L834.143 198.569Z" fill="white"/>
<path d="M855.11 222.539L881.849 221.25L890.677 196.661L896.049 203.895L889.589 221.171L907.939 219.908L913.348 227.191L887.257 228.533L878.254 253.707L872.882 246.473L879.535 228.636L860.518 229.822L855.11 222.539Z" fill="white"/>
<path d="M893.011 277.102L931.955 256.661L935.035 262.529L914.519 290.477L949.174 289.465L952.254 295.334L913.31 315.776L910.116 309.691L935.078 296.588L903.842 297.737L902.479 295.141L921.181 270.112L896.219 283.214L893.011 277.102Z" fill="white"/>
<path d="M915.421 320.845L961.407 317.371L965.414 327.381L929.736 356.601L926.921 349.569L958.879 323.22L959.492 324.751L918.236 327.877L915.421 320.845ZM927.14 324.477L933.52 321.923L942.102 343.36L935.722 345.914L927.14 324.477Z" fill="white"/>
<path d="M930.779 360.299L972.886 347.593L978.136 364.992C978.26 365.401 978.399 365.933 978.554 366.588C978.729 367.238 978.85 367.85 978.917 368.425C979.282 370.974 979.079 373.226 978.308 375.181C977.543 377.156 976.32 378.812 974.639 380.149C972.983 381.499 970.995 382.524 968.675 383.224C965.244 384.26 962.029 384.283 959.03 383.295C956.05 382.302 953.727 380.1 952.059 376.689L950.887 373.757L947.614 362.908L932.906 367.346L930.779 360.299ZM938.076 384.482L952.706 371.007L956.446 377.694L940.485 392.465L938.076 384.482ZM954.193 360.923L957.228 370.982C957.346 371.372 957.498 371.804 957.684 372.28C957.87 372.756 958.083 373.18 958.324 373.554C958.969 374.636 959.762 375.396 960.703 375.836C961.65 376.294 962.632 376.519 963.65 376.509C964.674 376.52 965.634 376.389 966.531 376.119C967.428 375.848 968.3 375.425 969.148 374.851C970.02 374.289 970.724 373.556 971.259 372.65C971.8 371.764 972.04 370.692 971.98 369.434C971.973 368.989 971.906 368.52 971.778 368.027C971.67 367.528 971.557 367.083 971.44 366.693L968.404 356.634L954.193 360.923Z" fill="white"/>
<path d="M941.731 398.168L984.772 389.117L986.287 396.321L966.321 400.519L989.901 413.507L991.762 422.355L966.769 408.29L948.984 432.661L947.061 423.515L963.332 401.148L943.246 405.371L941.731 398.168Z" fill="white"/>
<path d="M948.888 434.046L992.515 428.462L996.121 456.638L989.274 457.514L986.602 436.64L975.847 438.017L978.053 455.255L971.206 456.132L969 438.893L956.669 440.471L959.341 461.345L952.494 462.222L948.888 434.046Z" fill="white"/>
<path d="M953.551 479.91L990.586 478.096L989.89 463.879L996.784 463.542L998.537 499.326L991.643 499.664L990.946 485.448L953.911 487.262L953.551 479.91Z" fill="white"/>
<path d="M954.446 514.763L997.512 531.258L996.861 542.02L952.122 553.208L952.579 545.647L992.729 535.467L992.629 537.113L953.989 522.324L954.446 514.763ZM963.492 523.051L970.351 523.466L968.959 546.515L962.099 546.1L963.492 523.051Z" fill="white"/>
<path d="M948.316 571.869C948.781 568.685 949.754 565.895 951.236 563.498C952.716 561.121 954.603 559.257 956.9 557.905C959.214 556.576 961.823 555.898 964.729 555.87L964.774 563.593C962.1 563.861 959.913 564.889 958.211 566.678C956.506 568.487 955.462 570.701 955.08 573.32C954.853 574.872 954.881 576.368 955.165 577.808C955.448 579.249 955.991 580.46 956.795 581.442C957.595 582.444 958.67 583.043 960.02 583.241C960.624 583.329 961.193 583.309 961.726 583.181C962.28 583.056 962.787 582.822 963.249 582.478C963.708 582.154 964.144 581.703 964.558 581.126C964.989 580.571 965.384 579.909 965.743 579.138L970.711 568.381C971.134 567.455 971.66 566.462 972.288 565.401C972.934 564.364 973.743 563.402 974.716 562.515C975.707 561.651 976.894 560.991 978.278 560.535C979.678 560.102 981.336 560.025 983.25 560.305C986.051 560.714 988.295 561.762 989.983 563.449C991.688 565.159 992.839 567.282 993.435 569.818C994.029 572.375 994.101 575.122 993.651 578.061C993.195 581.04 992.293 583.624 990.944 585.814C989.615 588.007 987.889 589.751 985.765 591.046C983.642 592.341 981.193 593.115 978.419 593.368L978.203 585.342C979.781 585.243 981.172 584.808 982.375 584.038C983.596 583.29 984.585 582.292 985.344 581.045C986.099 579.818 986.606 578.462 986.864 576.977C987.096 575.529 987.072 574.146 986.791 572.83C986.527 571.536 986.028 570.444 985.294 569.555C984.557 568.686 983.624 568.169 982.496 568.004C981.428 567.848 980.504 568.042 979.725 568.587C978.966 569.134 978.316 569.852 977.774 570.74C977.25 571.652 976.785 572.582 976.379 573.531L973.063 581.01C972.625 582.037 972.067 583.18 971.389 584.439C970.712 585.698 969.85 586.879 968.804 587.981C967.758 589.084 966.472 589.925 964.947 590.505C963.419 591.104 961.567 591.245 959.391 590.927C957.134 590.598 955.219 589.834 953.644 588.637C952.087 587.463 950.861 585.998 949.965 584.241C949.069 582.484 948.49 580.537 948.226 578.4C947.959 576.282 947.989 574.105 948.316 571.869Z" fill="white"/>
<path d="M945.672 593.579L988.502 603.581L984.369 621.279C984.272 621.695 984.127 622.226 983.935 622.871C983.762 623.521 983.561 624.111 983.333 624.643C982.377 627.034 981.077 628.884 979.433 630.194C977.784 631.524 975.898 632.348 973.774 632.668C971.666 633.012 969.432 632.908 967.072 632.357C964.732 631.811 962.683 630.914 960.925 629.667C959.187 628.425 957.873 626.843 956.984 624.92C956.09 623.018 955.742 620.793 955.939 618.246C955.989 617.673 956.074 617.044 956.191 616.361C956.304 615.697 956.407 615.167 956.5 614.77L958.959 604.241L943.998 600.747L945.672 593.579ZM965.651 605.804L963.262 616.036C963.169 616.432 963.085 616.883 963.009 617.388C962.932 617.893 962.905 618.368 962.927 618.812C962.947 620.071 963.254 621.126 963.85 621.976C964.442 622.846 965.181 623.531 966.068 624.031C966.95 624.55 967.848 624.917 968.76 625.13C969.672 625.343 970.639 625.412 971.66 625.336C972.696 625.286 973.672 625.001 974.588 624.483C975.499 623.985 976.242 623.176 976.817 622.055C977.033 621.667 977.209 621.227 977.345 620.736C977.5 620.249 977.624 619.808 977.717 619.411L980.106 609.18L965.651 605.804Z" fill="white"/>
<path d="M936.687 630.178L978.553 643.66L969.846 670.698L963.275 668.582L969.726 648.551L959.405 645.227L954.077 661.77L947.507 659.654L952.834 643.111L941.001 639.3L934.551 659.332L927.98 657.216L936.687 630.178Z" fill="white"/>
<path d="M926.967 660.295L941.798 682.58L967.432 677.536L963.981 685.86L945.839 689.182L956.341 704.283L952.867 712.663L938.323 690.96L912.098 696.155L915.549 687.832L934.271 684.386L923.493 668.674L926.967 660.295Z" fill="white"/>
<path d="M899.498 720.951L937.009 743.916L933.548 749.569L899.036 746.275L917.664 775.514L914.203 781.167L876.692 758.202L880.281 752.341L904.324 767.061L887.33 740.827L888.861 738.326L919.937 741.558L895.894 726.838L899.498 720.951Z" fill="white"/>
<path d="M873.475 762.531L900.06 800.214L893.527 808.791L850.136 793.169L854.726 787.144L893.743 801.046L892.744 802.358L868.885 768.557L873.475 762.531ZM876.373 774.453L881.84 778.617L867.848 796.986L862.381 792.821L876.373 774.453Z" fill="white"/>
<path d="M847.412 796.072L879.953 825.663L867.727 839.108C867.439 839.425 867.054 839.818 866.572 840.287C866.105 840.771 865.642 841.189 865.183 841.543C863.184 843.165 861.148 844.149 859.074 844.492C856.986 844.851 854.937 844.653 852.927 843.898C850.917 843.171 849.016 841.993 847.224 840.363C844.572 837.952 842.899 835.206 842.205 832.125C841.526 829.059 842.221 825.934 844.29 822.751L846.203 820.238L853.827 811.854L842.46 801.518L847.412 796.072ZM830.419 814.761L849.497 820.384L845.682 827.031L824.809 820.93L830.419 814.761ZM858.911 816.478L851.842 824.252C851.568 824.553 851.275 824.905 850.963 825.31C850.651 825.714 850.396 826.115 850.199 826.513C849.603 827.623 849.358 828.694 849.465 829.727C849.558 830.775 849.87 831.733 850.401 832.601C850.919 833.485 851.524 834.242 852.217 834.872C852.91 835.502 853.721 836.033 854.649 836.464C855.579 836.925 856.57 837.151 857.622 837.145C858.661 837.153 859.704 836.808 860.752 836.11C861.13 835.876 861.498 835.577 861.855 835.214C862.228 834.865 862.551 834.54 862.825 834.238L869.894 826.465L858.911 816.478Z" fill="white"/>
<path d="M820.759 824.745L850.7 856.964L845.308 861.975L831.418 847.029L832.443 873.93L825.82 880.085L824.99 851.418L794.939 848.74L801.786 842.377L829.339 844.792L815.367 829.756L820.759 824.745Z" fill="white"/>
<path d="M793.442 849.591L820.711 884.1L798.423 901.711L794.144 896.295L810.655 883.248L803.933 874.74L790.297 885.515L786.017 880.099L799.653 869.324L791.946 859.57L775.434 872.618L771.155 867.202L793.442 849.591Z" fill="white"/>
<path d="M756.58 877.196L777.218 908.002L789.043 900.08L792.885 905.815L763.12 925.756L759.278 920.021L771.103 912.099L750.465 881.293L756.58 877.196Z" fill="white"/>
<path d="M727.875 895.513L735.931 940.921L726.373 945.909L693.73 913.333L700.445 909.828L729.859 938.991L728.397 939.754L721.16 899.018L727.875 895.513ZM725.433 907.537L728.613 913.629L708.142 924.313L704.963 918.22L725.433 907.537Z" fill="white"/>
<path d="M675.64 919.721C678.609 918.482 681.502 917.882 684.32 917.92C687.119 917.965 689.689 918.625 692.03 919.899C694.36 921.2 696.284 923.088 697.803 925.566L691.203 929.577C689.598 927.422 687.591 926.076 685.181 925.536C682.753 925.005 680.318 925.249 677.875 926.268C676.428 926.872 675.159 927.666 674.07 928.65C672.98 929.634 672.221 930.723 671.792 931.917C671.345 933.118 671.384 934.349 671.909 935.608C672.144 936.172 672.454 936.649 672.838 937.041C673.23 937.451 673.692 937.765 674.224 937.984C674.738 938.211 675.349 938.354 676.057 938.411C676.754 938.495 677.526 938.493 678.371 938.405L690.151 937.131C691.163 937.018 692.285 936.958 693.518 936.951C694.74 936.971 695.981 937.17 697.242 937.548C698.492 937.954 699.669 938.632 700.772 939.584C701.864 940.562 702.783 941.944 703.528 943.729C704.618 946.342 704.873 948.805 704.295 951.121C703.705 953.463 702.477 955.542 700.609 957.358C698.722 959.182 696.403 960.657 693.652 961.783C690.863 962.924 688.182 963.48 685.61 963.45C683.046 963.439 680.663 962.856 678.46 961.701C676.257 960.546 674.334 958.844 672.689 956.596L679.461 952.281C680.358 953.584 681.446 954.553 682.726 955.188C683.995 955.85 685.359 956.186 686.819 956.194C688.26 956.211 689.684 955.948 691.09 955.405C692.451 954.859 693.624 954.127 694.609 953.209C695.583 952.317 696.262 951.328 696.647 950.241C697.013 949.161 696.976 948.095 696.537 947.043C696.122 946.047 695.48 945.355 694.612 944.967C693.752 944.598 692.802 944.409 691.762 944.402C690.711 944.421 689.674 944.501 688.651 944.641L680.532 945.646C679.426 945.798 678.159 945.907 676.73 945.974C675.302 946.04 673.846 945.909 672.362 945.579C670.879 945.249 669.496 944.579 668.215 943.57C666.914 942.568 665.84 941.052 664.994 939.022C664.116 936.918 663.785 934.882 664.002 932.917C664.208 930.977 664.833 929.172 665.879 927.5C666.924 925.828 668.296 924.329 669.993 923.004C671.672 921.685 673.554 920.591 675.64 919.721Z" fill="white"/>
<path d="M655.675 928.616L669.121 970.492L651.818 976.048C651.411 976.179 650.881 976.328 650.229 976.495C649.583 976.681 648.973 976.812 648.399 976.89C645.857 977.3 643.602 977.136 641.633 976.4C639.645 975.669 637.968 974.476 636.602 972.818C635.222 971.187 634.162 969.217 633.422 966.91C632.687 964.623 632.402 962.404 632.568 960.255C632.739 958.126 633.421 956.185 634.612 954.434C635.784 952.689 637.513 951.246 639.799 950.106C640.317 949.854 640.899 949.603 641.546 949.353C642.173 949.108 642.681 948.924 643.068 948.8L653.363 945.494L648.666 930.866L655.675 928.616ZM655.464 952.037L645.46 955.249C645.073 955.374 644.643 955.533 644.17 955.728C643.698 955.922 643.277 956.143 642.907 956.39C641.837 957.054 641.091 957.861 640.669 958.809C640.227 959.764 640.019 960.75 640.047 961.768C640.055 962.792 640.202 963.749 640.488 964.641C640.775 965.533 641.213 966.398 641.802 967.235C642.379 968.098 643.125 968.788 644.04 969.307C644.935 969.832 646.012 970.054 647.268 969.971C647.713 969.956 648.18 969.881 648.671 969.745C649.168 969.628 649.611 969.507 649.999 969.383L660.003 966.17L655.464 952.037Z" fill="white"/>
<path d="M619.661 939.725L629.627 982.564L601.961 989L600.397 982.277L620.894 977.508L618.437 966.947L601.51 970.885L599.945 964.162L616.873 960.224L614.056 948.116L593.559 952.885L591.995 946.161L619.661 939.725Z" fill="white"/>
<path d="M588.826 946.877L577.345 971.059L594.856 990.447L585.944 991.769L573.762 977.921L566.215 994.695L557.241 996.026L568.371 972.39L550.425 952.573L559.338 951.251L571.924 965.533L579.853 948.208L588.826 946.877Z" fill="white"/>
<path d="M509.635 954.866L508.068 998.821L501.444 998.585L487.354 966.908L471.042 997.501L464.418 997.264L465.986 953.31L472.854 953.555L471.849 981.728L486.346 954.036L489.276 954.14L501.732 982.794L502.737 954.62L509.635 954.866Z" fill="white"/>
<path d="M460.484 952.633L440.731 994.306L430.051 992.831L422.33 947.365L429.834 948.401L436.902 989.214L435.268 988.988L452.98 951.597L460.484 952.633ZM451.525 961.016L450.585 967.824L427.711 964.666L428.652 957.858L451.525 961.016Z" fill="white"/>
<path d="M418.687 946.465L408.898 989.345L391.18 985.3C390.763 985.205 390.232 985.063 389.586 984.874C388.935 984.704 388.344 984.506 387.81 984.28C385.415 983.337 383.558 982.046 382.24 980.408C380.903 978.766 380.069 976.884 379.739 974.762C379.384 972.655 379.476 970.42 380.016 968.058C380.813 964.564 382.383 961.758 384.726 959.64C387.063 957.542 390.127 956.613 393.915 956.851L397.044 957.283L408.091 959.805L411.51 944.827L418.687 946.465ZM394.061 940.843L398.534 960.224L390.871 960.166L385.931 938.988L394.061 940.843ZM406.562 966.505L396.318 964.167C395.921 964.076 395.47 963.994 394.965 963.92C394.459 963.847 393.984 963.822 393.54 963.846C392.281 963.872 391.228 964.185 390.381 964.785C389.514 965.381 388.833 966.123 388.337 967.013C387.822 967.898 387.46 968.797 387.252 969.71C387.043 970.623 386.979 971.59 387.059 972.611C387.115 973.647 387.404 974.622 387.927 975.535C388.43 976.443 389.243 977.182 390.366 977.752C390.756 977.966 391.196 978.14 391.688 978.273C392.175 978.426 392.617 978.548 393.014 978.638L403.258 980.977L406.562 966.505Z" fill="white"/>
<path d="M380.438 937.267L367.017 979.152L360.007 976.906L366.233 957.476L343.282 971.547L334.672 968.788L359.257 954.022L346.871 926.511L355.772 929.363L367.165 954.567L373.428 935.021L380.438 937.267Z" fill="white"/>
<path d="M345.561 925.684L328.808 966.351L302.543 955.532L305.173 949.149L324.631 957.165L328.761 947.139L312.692 940.52L315.321 934.137L331.39 940.757L336.125 929.263L316.667 921.247L319.297 914.864L345.561 925.684Z" fill="white"/>
<path d="M303.4 907.007L286.607 940.067L299.297 946.513L296.171 952.667L264.228 936.442L267.354 930.287L280.044 936.733L296.837 903.674L303.4 907.007Z" fill="white"/>
<path d="M273.375 890.89L237.69 920.103L228.668 914.2L241.145 869.803L247.483 873.95L236.408 913.862L235.028 912.959L267.036 886.742L273.375 890.89ZM261.691 894.633L257.928 900.384L238.605 887.742L242.368 881.991L261.691 894.633Z" fill="white"/>
<path d="M226.811 857.217C229.344 859.2 231.284 861.43 232.629 863.906C233.959 866.369 234.641 868.933 234.675 871.598C234.681 874.266 233.975 876.869 232.558 879.406L225.83 875.612C226.924 873.158 227.117 870.749 226.408 868.384C225.683 866.006 224.279 864.001 222.195 862.37C220.96 861.403 219.647 860.685 218.256 860.217C216.864 859.748 215.543 859.619 214.292 859.829C213.025 860.027 211.971 860.663 211.13 861.737C210.754 862.218 210.489 862.721 210.335 863.248C210.169 863.79 210.121 864.347 210.191 864.919C210.244 865.478 210.419 866.08 210.715 866.726C210.983 867.375 211.362 868.047 211.853 868.742L218.728 878.391C219.322 879.218 219.923 880.168 220.532 881.24C221.113 882.315 221.547 883.495 221.834 884.78C222.092 886.068 222.076 887.426 221.786 888.854C221.467 890.285 220.711 891.763 219.519 893.286C217.774 895.514 215.75 896.943 213.448 897.571C211.117 898.203 208.703 898.149 206.205 897.409C203.691 896.656 201.27 895.355 198.942 893.507C196.581 891.633 194.785 889.567 193.553 887.309C192.308 885.067 191.65 882.703 191.58 880.217C191.509 877.731 192.052 875.221 193.209 872.687L200.285 876.481C199.587 877.901 199.275 879.324 199.347 880.751C199.39 882.182 199.766 883.536 200.472 884.813C201.163 886.078 202.089 887.191 203.25 888.152C204.392 889.072 205.604 889.736 206.887 890.146C208.141 890.559 209.337 890.667 210.473 890.471C211.594 890.262 212.505 889.708 213.208 888.811C213.873 887.961 214.163 887.063 214.077 886.116C213.978 885.185 213.677 884.264 213.175 883.354C212.644 882.447 212.067 881.581 211.444 880.758L206.595 874.168C205.921 873.278 205.206 872.227 204.449 871.014C203.692 869.8 203.095 868.466 202.656 867.011C202.218 865.556 202.126 864.022 202.379 862.411C202.616 860.786 203.413 859.108 204.769 857.377C206.175 855.581 207.788 854.297 209.608 853.524C211.4 852.755 213.281 852.417 215.251 852.511C217.22 852.604 219.198 853.067 221.185 853.898C223.156 854.717 225.031 855.824 226.811 857.217Z" fill="white"/>
<path d="M209.13 844.028L179.209 876.265L165.889 863.901C165.576 863.61 165.186 863.221 164.722 862.734C164.243 862.262 163.829 861.795 163.481 861.333C161.878 859.317 160.916 857.271 160.594 855.194C160.257 853.103 160.476 851.056 161.251 849.053C161.998 847.052 163.195 845.163 164.844 843.387C166.479 841.626 168.273 840.291 170.228 839.382C172.168 838.489 174.194 838.132 176.304 838.313C178.4 838.48 180.504 839.281 182.618 840.715C183.091 841.043 183.595 841.427 184.131 841.869C184.651 842.296 185.06 842.648 185.359 842.925L193.283 850.281L203.735 839.02L209.13 844.028ZM188.608 855.318L180.907 848.17C180.609 847.893 180.259 847.596 179.858 847.28C179.458 846.963 179.059 846.704 178.662 846.503C177.559 845.896 176.491 845.64 175.457 845.736C174.408 845.818 173.447 846.121 172.573 846.643C171.684 847.152 170.921 847.749 170.284 848.436C169.647 849.122 169.107 849.928 168.666 850.852C168.197 851.777 167.96 852.766 167.956 853.818C167.937 854.856 168.271 855.902 168.959 856.957C169.189 857.338 169.484 857.709 169.843 858.07C170.188 858.446 170.51 858.773 170.809 859.05L178.51 866.198L188.608 855.318Z" fill="white"/>
<path d="M181.916 818.213L149.495 847.934L130.3 826.996L135.389 822.331L149.609 837.844L157.602 830.516L145.858 817.706L150.946 813.041L162.69 825.852L171.854 817.451L157.633 801.939L162.721 797.274L181.916 818.213Z" fill="white"/>
<path d="M160.429 794.728L133.727 796.614L125.449 821.393L119.917 814.281L125.99 796.866L107.672 798.538L102.103 791.377L128.157 789.454L136.595 764.085L142.127 771.197L135.875 789.178L154.86 787.567L160.429 794.728Z" fill="white"/>
<path d="M114.885 730.283L75.8316 750.513L72.783 744.628L93.4497 716.792L58.7901 717.616L55.7415 711.731L94.7953 691.5L97.9563 697.602L72.9239 710.57L104.166 709.59L105.515 712.193L86.678 737.121L111.71 724.153L114.885 730.283Z" fill="white"/>
<path d="M92.7255 686.438L46.7216 689.664L42.7682 679.633L78.6029 650.605L81.3804 657.652L49.2809 683.83L48.6761 682.295L89.948 679.391L92.7255 686.438ZM81.0262 682.743L74.6325 685.263L66.1657 663.78L72.5593 661.26L81.0262 682.743Z" fill="white"/>
<path d="M77.5681 646.886L35.3922 659.363L30.2368 641.936C30.1155 641.526 29.9791 640.993 29.8275 640.337C29.6564 639.687 29.5388 639.074 29.4747 638.498C29.1236 635.948 29.339 633.697 30.1207 631.746C30.8967 629.775 32.1288 628.126 33.8171 626.798C35.48 625.457 37.4733 624.442 39.7969 623.755C43.2334 622.738 46.4487 622.732 49.4425 623.736C52.4169 624.746 54.7284 626.961 56.377 630.38L57.5331 633.319L60.7477 644.185L75.4799 639.827L77.5681 646.886ZM70.4025 622.664L55.7 636.059L51.9955 629.351L68.037 614.668L70.4025 622.664ZM54.1577 646.135L51.1771 636.059C51.0615 635.669 50.912 635.235 50.7286 634.759C50.5451 634.282 50.3341 633.856 50.0957 633.481C49.4562 632.396 48.6673 631.631 47.7289 631.187C46.7847 630.723 45.8036 630.493 44.7855 630.497C43.7616 630.481 42.8006 630.606 41.9024 630.872C41.0042 631.138 40.1298 631.556 39.2792 632.126C38.4033 632.682 37.6955 633.412 37.1557 634.315C36.6101 635.198 36.3641 636.269 36.4178 637.527C36.422 637.972 36.4865 638.441 36.6114 638.935C36.7167 639.435 36.8272 639.88 36.9427 640.27L39.9233 650.346L54.1577 646.135Z" fill="white"/>
<path d="M66.8164 608.926L23.7261 617.741L22.2508 610.529L42.24 606.44L18.731 593.323L16.9191 584.465L41.8345 598.666L59.7523 574.394L61.6254 583.55L45.2323 605.828L65.3412 601.714L66.8164 608.926Z" fill="white"/>
<path d="M59.8685 573.055L16.2123 578.404L12.7573 550.21L19.6089 549.37L22.1686 570.258L32.931 568.94L30.8171 551.689L37.6687 550.85L39.7826 568.1L52.1215 566.588L49.5618 545.7L56.4134 544.86L59.8685 573.055Z" fill="white"/>
<path d="M55.4458 527.13L18.4011 528.745L19.021 542.965L12.1247 543.266L10.5643 507.472L17.4606 507.172L18.0805 521.391L55.1252 519.776L55.4458 527.13Z" fill="white"/>
<path d="M54.7376 492.273L11.7607 475.547L12.4688 464.789L57.2674 453.841L56.7698 461.399L16.5662 471.364L16.6746 469.718L55.2351 484.715L54.7376 492.273ZM45.7361 483.936L38.8787 483.485L40.3954 460.444L47.2528 460.895L45.7361 483.936Z" fill="white"/>
<path d="M61.1638 435.246C60.6817 438.427 59.6932 441.212 58.1983 443.601C56.7065 445.97 54.8088 447.824 52.505 449.164C50.1842 450.48 47.5709 451.145 44.6651 451.157L44.6619 443.434C47.3365 443.18 49.5295 442.164 51.2409 440.384C52.9553 438.584 54.0109 436.376 54.4076 433.759C54.6426 432.209 54.6222 430.712 54.3466 429.27C54.0709 427.828 53.5341 426.614 52.7362 425.628C51.9413 424.622 50.8694 424.017 49.5206 423.812C48.9166 423.721 48.3477 423.737 47.8139 423.862C47.2599 423.984 46.7511 424.216 46.2874 424.558C45.8268 424.879 45.3881 425.328 44.9714 425.903C44.5376 426.455 44.1389 427.115 43.7752 427.884L38.7506 438.614C38.3222 439.538 37.7911 440.528 37.1572 441.586C36.5061 442.62 35.6916 443.577 34.7136 444.459C33.7185 445.317 32.5279 445.971 31.1418 446.42C29.7386 446.846 28.0807 446.914 26.1681 446.624C23.3697 446.199 21.1311 445.139 19.4523 443.443C17.7564 441.724 16.6169 439.595 16.0338 437.055C15.4538 434.496 15.3966 431.748 15.8622 428.812C16.334 425.836 17.2502 423.256 18.6108 421.073C19.9513 418.887 21.6868 417.153 23.8172 415.869C25.9477 414.586 28.4006 413.825 31.1758 413.586L31.3492 421.614C29.7703 421.704 28.3772 422.131 27.1698 422.896C25.9453 423.637 24.9505 424.629 24.1854 425.872C23.4234 427.095 22.9093 428.449 22.6432 429.933C22.4033 431.379 22.4203 432.761 22.6942 434.08C22.951 435.375 23.4441 436.469 24.1737 437.363C24.9064 438.236 25.8364 438.758 26.9638 438.928C28.0308 439.09 28.9554 438.901 29.7376 438.36C30.4996 437.817 31.1537 437.102 31.6997 436.217C32.2287 435.309 32.6988 434.381 33.1101 433.434L36.4654 425.973C36.909 424.949 37.4731 423.809 38.1576 422.553C38.8422 421.298 39.7104 420.121 40.7623 419.025C41.8141 417.928 43.1042 417.094 44.6325 416.522C46.1638 415.93 48.0166 415.799 50.1909 416.129C52.4457 416.471 54.3571 417.244 55.9249 418.45C57.4756 419.632 58.6942 421.104 59.5805 422.866C60.4669 424.627 61.0362 426.577 61.2887 428.716C61.5442 430.835 61.5026 433.012 61.1638 435.246Z" fill="white"/>
<path d="M63.9337 413.511L21.1588 403.274L25.3884 385.6C25.4879 385.184 25.6357 384.654 25.8317 384.01C26.0079 383.361 26.2118 382.772 26.4435 382.241C27.4122 379.855 28.7221 378.012 30.3734 376.712C32.0294 375.391 33.9202 374.577 36.0457 374.269C38.1562 373.936 40.3897 374.052 42.7463 374.616C45.0831 375.175 47.1271 376.083 48.8782 377.34C50.6096 378.592 51.9146 380.181 52.7934 382.108C53.677 384.016 54.0131 386.242 53.8017 388.788C53.7482 389.361 53.6607 389.989 53.5392 390.672C53.4224 391.335 53.3166 391.865 53.2218 392.261L50.7054 402.776L65.6469 406.352L63.9337 413.511ZM44.0218 401.177L46.4672 390.958C46.5619 390.562 46.6488 390.112 46.7276 389.607C46.8065 389.103 46.8363 388.628 46.817 388.184C46.8043 386.925 46.5022 385.868 45.9108 385.015C45.3242 384.142 44.5888 383.453 43.7046 382.948C42.8251 382.424 41.9299 382.052 41.0189 381.834C40.108 381.616 39.1417 381.542 38.12 381.612C37.0833 381.657 36.1058 381.936 35.1874 382.449C34.2738 382.942 33.5262 383.747 32.9448 384.864C32.7265 385.252 32.5482 385.691 32.4099 386.181C32.2518 386.667 32.1254 387.107 32.0306 387.503L29.5853 397.722L44.0218 401.177Z" fill="white"/>
<path d="M73.1165 376.979L31.3247 363.27L40.1782 336.28L46.7372 338.431L40.178 358.427L50.4808 361.807L55.8977 345.293L62.4566 347.445L57.0398 363.958L68.8518 367.833L75.411 347.837L81.97 349.988L73.1165 376.979Z" fill="white"/>
<path d="M82.9942 346.935L68.2834 324.57L42.6228 329.476L46.1187 321.172L64.2782 317.946L53.8571 302.789L57.3767 294.428L71.803 316.21L98.0562 311.155L94.5603 319.46L75.8201 322.805L86.5138 338.574L82.9942 346.935Z" fill="white"/>
<path d="M116.993 275.607L80.2609 251.415L83.9064 245.88L118.291 250.312L100.639 220.473L104.284 214.938L141.016 239.13L137.237 244.869L113.692 229.363L129.811 256.144L128.198 258.593L97.2454 254.336L120.79 269.842L116.993 275.607Z" fill="white"/>
<path d="M144.411 234.86L119.085 196.32L125.898 187.963L168.749 205.009L163.963 210.88L125.426 195.696L126.468 194.418L149.197 228.989L144.411 234.86ZM141.908 222.849L136.582 218.506L151.173 200.61L156.5 204.953L141.908 222.849Z" fill="white"/>
<path d="M171.556 202.211L140.008 171.565L152.671 158.529C152.969 158.223 153.366 157.843 153.864 157.389C154.347 156.921 154.823 156.518 155.294 156.18C157.345 154.624 159.412 153.709 161.496 153.433C163.594 153.144 165.636 153.409 167.62 154.23C169.605 155.022 171.466 156.262 173.204 157.951C175.774 160.448 177.356 163.247 177.948 166.349C178.526 169.437 177.728 172.537 175.556 175.65L173.561 178.098L165.665 186.226L176.685 196.931L171.556 202.211ZM189.157 184.093L170.274 177.844L174.305 171.327L194.967 178.112L189.157 184.093ZM160.736 181.438L168.057 173.901C168.341 173.609 168.645 173.266 168.971 172.873C169.296 172.479 169.564 172.087 169.774 171.695C170.407 170.606 170.686 169.543 170.614 168.508C170.555 167.457 170.275 166.489 169.773 165.604C169.284 164.704 168.704 163.927 168.032 163.275C167.36 162.622 166.568 162.065 165.654 161.603C164.739 161.112 163.756 160.853 162.705 160.825C161.667 160.782 160.614 161.093 159.543 161.756C159.158 161.978 158.78 162.264 158.411 162.615C158.027 162.952 157.693 163.266 157.409 163.558L150.088 171.095L160.736 181.438Z" fill="white"/>
<path d="M199.145 174.428L170.282 141.241L175.836 136.41L189.225 151.806L189.088 124.885L195.91 118.952L195.795 147.63L225.741 151.298L218.688 157.431L191.23 154.11L204.699 169.598L199.145 174.428Z" fill="white"/>
<path d="M227.276 150.488L201.164 115.096L224.021 98.2317L228.119 103.786L211.185 116.281L217.623 125.006L231.607 114.688L235.706 120.242L221.721 130.56L229.101 140.564L246.036 128.069L250.134 133.624L227.276 150.488Z" fill="white"/>
<path d="M264.983 124.151L245.372 92.6815L233.293 100.209L229.642 94.3505L260.049 75.4026L263.7 81.2611L251.62 88.7886L271.23 120.258L264.983 124.151Z" fill="white"/>
<path d="M294.357 106.756L287.82 61.1048L297.54 56.438L329.078 90.085L322.249 93.3637L293.824 63.2365L295.311 62.5226L301.186 103.477L294.357 106.756ZM297.198 94.8206L294.224 88.6255L315.04 78.6308L318.014 84.826L297.198 94.8206Z" fill="white"/>
<path d="M347.223 84.358C344.214 85.4977 341.303 86.002 338.488 85.8708C335.692 85.7324 333.145 84.9878 330.848 83.6371C328.562 82.2601 326.702 80.3085 325.266 77.7823L331.995 73.9918C333.528 76.1983 335.489 77.611 337.879 78.2298C340.288 78.8414 342.731 78.6783 345.206 77.7405C346.672 77.1851 347.966 76.4336 349.088 75.4861C350.21 74.5385 351.005 73.4753 351.473 72.2965C351.96 71.1103 351.961 69.8794 351.478 68.6036C351.262 68.0323 350.968 67.5448 350.597 67.1408C350.219 66.7179 349.768 66.3881 349.243 66.1516C348.737 65.9078 348.131 65.7454 347.425 65.6643C346.731 65.557 345.96 65.5334 345.112 65.5934L333.296 66.4767C332.281 66.5563 331.158 66.5791 329.925 66.5451C328.705 66.4849 327.471 66.2447 326.223 65.8247C324.987 65.3784 323.833 64.6613 322.762 63.6735C321.703 62.6594 320.831 61.2478 320.146 59.4389C319.143 56.7921 318.969 54.3212 319.624 52.0263C320.291 49.7052 321.588 47.6679 323.515 45.9146C325.46 44.154 327.827 42.7566 330.614 41.7225C333.44 40.6739 336.137 40.2073 338.707 40.3226C341.269 40.4189 343.632 41.0807 345.795 42.308C347.959 43.5353 349.825 45.2998 351.393 47.6015L344.483 51.6893C343.63 50.3575 342.574 49.3529 341.316 48.6755C340.069 47.9719 338.717 47.5915 337.258 47.5344C335.818 47.4701 334.387 47.6859 332.963 48.1816C331.585 48.6819 330.389 49.3747 329.374 50.2599C328.371 51.1188 327.659 52.0852 327.239 53.1591C326.837 54.2258 326.838 55.2923 327.242 56.3586C327.625 57.3678 328.243 58.0807 329.098 58.4973C329.945 58.8948 330.888 59.1145 331.928 59.1563C332.979 59.1719 334.018 59.1267 335.044 59.0208L343.193 58.2857C344.303 58.1699 345.573 58.1025 347.003 58.0834C348.433 58.0643 349.884 58.2442 351.355 58.623C352.827 59.0017 354.187 59.7169 355.434 60.7685C356.701 61.8129 357.724 63.3634 358.503 65.4199C359.311 67.5526 359.574 69.5977 359.292 71.5553C359.022 73.4866 358.337 75.2704 357.236 76.9066C356.136 78.5428 354.716 79.9954 352.975 81.2643C351.254 82.5261 349.337 83.5573 347.223 84.358Z" fill="white"/>
<path d="M367.598 76.0879L355.56 33.7847L373.04 28.8106C373.451 28.6936 373.985 28.5627 374.643 28.418C375.295 28.2536 375.909 28.1424 376.485 28.0843C379.039 27.7597 381.287 27.9985 383.23 28.8005C385.193 29.5969 386.829 30.8461 388.139 32.548C389.463 34.2248 390.457 36.2285 391.12 38.5591C391.778 40.8701 391.988 43.0968 391.751 45.239C391.508 47.3617 390.762 49.2782 389.513 50.9886C388.283 52.6935 386.507 54.0775 384.184 55.1407C383.658 55.3751 383.068 55.6066 382.413 55.8353C381.778 56.0584 381.264 56.2256 380.873 56.3371L370.473 59.2965L374.678 74.0732L367.598 76.0879ZM368.592 52.6866L378.698 49.8108C379.09 49.6994 379.525 49.5544 380.003 49.3759C380.482 49.1974 380.91 48.9909 381.288 48.7563C382.379 48.1282 383.152 47.3472 383.606 46.4135C384.08 45.4742 384.32 44.4955 384.327 43.4774C384.353 42.4538 384.238 41.4915 383.981 40.5906C383.725 39.6897 383.316 38.811 382.755 37.9545C382.208 37.0729 381.485 36.3575 380.588 35.8083C379.711 35.2536 378.642 34.9965 377.384 35.0371C376.939 35.0367 376.469 35.0963 375.974 35.2161C375.473 35.3162 375.027 35.422 374.635 35.5335L364.529 38.4093L368.592 52.6866Z" fill="white"/>
<path d="M404.035 66.1672L395.512 23.0183L423.379 17.5135L424.716 24.2855L404.071 28.3638L406.172 39.0012L423.222 35.6332L424.56 42.4052L407.51 45.7731L409.919 57.9687L430.565 53.8905L431.902 60.6625L404.035 66.1672Z" fill="white"/>
<path d="M434.927 60.0859L447.199 36.2957L430.336 16.3414L439.288 15.3139L451.006 29.5561L459.102 13.0396L468.115 12.0052L456.211 35.2613L473.494 55.6593L464.543 56.6867L452.434 41.9973L443.939 59.0515L434.927 60.0859Z" fill="white"/>
</svg>
