<svg width="693" height="694" viewBox="0 0 693 694" fill="none" xmlns="http://www.w3.org/2000/svg">
<path d="M350.084 37.2312L351.836 7.05259L356.384 7.3167L365.579 29.2993L377.258 8.52894L381.805 8.79305L380.053 38.9717L375.337 38.6978L376.461 19.3542L366.074 38.1599L364.062 38.043L355.944 18.1626L354.82 37.5063L350.084 37.2312Z" fill="#17ABBF"/>
<path d="M383.7 39.5116L397.91 11.1789L405.226 12.3555L409.836 43.7148L404.696 42.8882L400.463 14.7364L401.583 14.9164L388.84 40.3382L383.7 39.5116ZM389.984 33.8883L390.734 29.2248L406.403 31.7448L405.653 36.4082L389.984 33.8883Z" fill="#17ABBF"/>
<path d="M412.449 44.4168L419.845 15.1061L431.956 18.1622C432.241 18.2341 432.604 18.3401 433.045 18.4802C433.49 18.6068 433.893 18.7519 434.256 18.9157C435.887 19.6015 437.143 20.5173 438.023 21.6632C438.916 22.8124 439.46 24.1187 439.654 25.5821C439.864 27.0353 439.766 28.5694 439.359 30.1842C438.756 32.5724 437.633 34.4759 435.991 35.8945C434.352 37.2995 432.232 37.8906 429.633 37.6676L427.49 37.3218L419.938 35.4162L417.355 45.6546L412.449 44.4168ZM429.283 48.6645L426.512 35.2779L431.776 35.4372L434.839 50.0667L429.283 48.6645ZM421.094 30.8364L428.096 32.6033C428.367 32.6718 428.676 32.7353 429.022 32.7937C429.368 32.8522 429.694 32.8767 430 32.8672C430.865 32.8691 431.594 32.6704 432.185 32.2712C432.79 31.8754 433.27 31.3758 433.624 30.7723C433.992 30.1724 434.255 29.5603 434.412 28.9361C434.57 28.3118 434.629 27.6484 434.59 26.9457C434.568 26.2328 434.384 25.5586 434.039 24.9231C433.708 24.2911 433.161 23.7705 432.398 23.3615C432.134 23.2082 431.834 23.082 431.498 22.9828C431.165 22.87 430.864 22.7794 430.592 22.7109L423.59 20.9441L421.094 30.8364Z" fill="#17ABBF"/>
<path d="M438.529 51.3126L448.399 22.7399L453.181 24.3918L448.603 37.6464L464.59 28.333L470.464 30.3619L453.342 40.1277L461.427 59.2225L455.355 57.1251L447.917 39.6306L443.311 52.9645L438.529 51.3126Z" fill="#17ABBF"/>
<path d="M462.333 59.8208L474.474 32.1367L492.354 39.9779L490.448 44.3228L477.202 38.5135L474.209 45.3385L485.148 50.1359L483.242 54.4808L472.303 49.6833L468.872 57.5079L482.118 63.3172L480.212 67.6621L462.333 59.8208Z" fill="#17ABBF"/>
<path d="M491.033 73.3136L503.083 50.857L494.463 46.2317L496.706 42.0512L518.404 53.6939L516.161 57.8744L507.541 53.2491L495.491 75.7057L491.033 73.3136Z" fill="#17ABBF"/>
<path d="M511.407 84.8467L536.375 65.3206L542.484 69.5151L533.23 99.8305L528.938 96.8836L537.16 69.6286L538.095 70.2703L515.699 87.7936L511.407 84.8467ZM519.493 82.4535L522.167 78.5596L535.25 87.5428L532.577 91.4366L519.493 82.4535Z" fill="#17ABBF"/>
<path d="M542.911 108.714C541.201 107.312 539.902 105.751 539.015 104.029C538.139 102.316 537.71 100.543 537.727 98.7118C537.764 96.8783 538.289 95.1009 539.302 93.3795L543.866 96.0891C543.077 97.7585 542.908 99.4112 543.359 101.047C543.82 102.692 544.755 104.091 546.162 105.244C546.995 105.927 547.886 106.441 548.835 106.784C549.784 107.127 550.69 107.236 551.553 107.111C552.426 106.995 553.16 106.574 553.755 105.849C554.021 105.524 554.211 105.182 554.324 104.822C554.447 104.452 554.488 104.07 554.449 103.676C554.421 103.291 554.31 102.875 554.116 102.427C553.942 101.976 553.692 101.509 553.366 101.024L548.789 94.2882C548.394 93.7108 547.995 93.0493 547.593 92.3035C547.211 91.5558 546.931 90.7383 546.753 89.851C546.595 88.9617 546.627 88.0287 546.849 87.052C547.09 86.0735 547.632 85.07 548.474 84.0417C549.707 82.5371 551.12 81.5865 552.711 81.19C554.323 80.7915 555.981 80.8657 557.686 81.4127C559.402 81.9684 561.045 82.8993 562.617 84.2053C564.21 85.5291 565.413 86.9761 566.225 88.5463C567.046 90.1058 567.461 91.7402 567.472 93.4496C567.482 95.1591 567.071 96.8756 566.237 98.5991L561.433 95.8833C561.934 94.9187 562.171 93.9455 562.143 92.9638C562.135 91.9801 561.898 91.0439 561.432 90.1554C560.977 89.2756 560.357 88.4967 559.574 87.8186C558.804 87.1691 557.981 86.6938 557.106 86.3928C556.25 86.0898 555.431 85.997 554.647 86.1146C553.874 86.241 553.239 86.6072 552.742 87.2134C552.272 87.7871 552.059 88.3999 552.104 89.0518C552.157 89.6929 552.35 90.3301 552.681 90.9636C553.032 91.595 553.415 92.1985 553.83 92.7739L557.061 97.376C557.511 97.9977 557.986 98.7312 558.488 99.5765C558.989 100.422 559.379 101.348 559.658 102.354C559.937 103.361 559.977 104.416 559.778 105.52C559.59 106.632 559.017 107.773 558.059 108.942C557.066 110.154 555.938 111.012 554.675 111.515C553.432 112.016 552.134 112.22 550.782 112.125C549.43 112.03 548.078 111.682 546.726 111.08C545.384 110.488 544.112 109.699 542.911 108.714Z" fill="#17ABBF"/>
<path d="M554.855 118.046L575.908 96.3527L584.871 105.052C585.082 105.256 585.343 105.53 585.655 105.871C585.977 106.203 586.254 106.53 586.487 106.853C587.557 108.263 588.187 109.683 588.376 111.116C588.576 112.558 588.394 113.961 587.831 115.325C587.287 116.689 586.435 117.969 585.276 119.164C584.125 120.349 582.872 121.239 581.515 121.833C580.168 122.417 578.771 122.631 577.323 122.475C575.886 122.328 574.452 121.746 573.022 120.728C572.701 120.495 572.361 120.223 572 119.912C571.649 119.611 571.373 119.362 571.172 119.167L565.839 113.992L558.485 121.57L554.855 118.046ZM569.129 110.602L574.311 115.632C574.512 115.827 574.748 116.036 575.018 116.259C575.289 116.483 575.559 116.667 575.828 116.811C576.577 117.246 577.307 117.437 578.019 117.387C578.741 117.347 579.406 117.154 580.015 116.808C580.633 116.472 581.166 116.073 581.615 115.611C582.063 115.149 582.446 114.604 582.763 113.976C583.1 113.347 583.278 112.672 583.297 111.949C583.326 111.236 583.112 110.512 582.656 109.776C582.503 109.511 582.306 109.252 582.065 108.998C581.833 108.734 581.617 108.505 581.416 108.31L576.234 103.281L569.129 110.602Z" fill="#17ABBF"/>
<path d="M573.169 136.215L595.901 116.288L608.77 130.969L605.202 134.097L595.668 123.22L590.064 128.133L597.938 137.115L594.37 140.242L586.496 131.26L580.071 136.892L589.606 147.769L586.038 150.896L573.169 136.215Z" fill="#17ABBF"/>
<path d="M587.587 152.694L605.965 151.808L612.033 134.908L615.725 139.88L611.285 151.754L623.897 150.886L627.614 155.892L609.682 156.814L603.494 174.116L599.802 169.144L604.374 156.885L591.305 157.7L587.587 152.694Z" fill="#17ABBF"/>
<path d="M613.646 190.213L640.412 176.163L642.529 180.197L628.429 199.405L652.247 198.71L654.364 202.743L627.598 216.793L625.403 212.611L642.559 203.605L621.09 204.395L620.154 202.611L633.007 185.408L615.851 194.413L613.646 190.213Z" fill="#17ABBF"/>
<path d="M629.052 220.287L660.659 217.9L663.413 224.779L638.891 244.863L636.956 240.03L658.921 221.919L659.343 222.972L630.987 225.121L629.052 220.287ZM637.107 222.784L641.492 221.028L647.391 235.762L643.006 237.517L637.107 222.784Z" fill="#17ABBF"/>
<path d="M639.61 247.413L668.551 238.68L672.159 250.638C672.244 250.919 672.34 251.285 672.447 251.735C672.567 252.181 672.65 252.602 672.696 252.998C672.947 254.749 672.807 256.297 672.277 257.641C671.751 258.998 670.91 260.137 669.755 261.055C668.617 261.983 667.251 262.688 665.657 263.169C663.298 263.881 661.089 263.897 659.027 263.218C656.979 262.535 655.382 261.022 654.236 258.677L653.431 256.662L651.181 249.206L641.072 252.256L639.61 247.413ZM644.626 264.033L654.681 254.772L657.252 259.368L646.281 269.52L644.626 264.033ZM655.703 247.841L657.789 254.755C657.87 255.023 657.974 255.32 658.102 255.647C658.23 255.974 658.377 256.266 658.542 256.523C658.985 257.266 659.531 257.789 660.177 258.091C660.828 258.406 661.503 258.561 662.203 258.554C662.907 258.561 663.567 258.471 664.183 258.285C664.799 258.099 665.399 257.809 665.981 257.414C666.581 257.028 667.065 256.524 667.432 255.902C667.804 255.292 667.969 254.555 667.928 253.691C667.923 253.385 667.877 253.063 667.789 252.724C667.715 252.381 667.637 252.075 667.557 251.807L665.47 244.894L655.703 247.841Z" fill="#17ABBF"/>
<path d="M647.141 273.451L676.723 267.23L677.764 272.181L664.041 275.067L680.248 283.994L681.527 290.075L664.349 280.408L652.126 297.158L650.804 290.872L661.987 275.499L648.182 278.402L647.141 273.451Z" fill="#17ABBF"/>
<path d="M652.061 298.118L682.046 294.281L684.524 313.646L679.819 314.248L677.982 299.901L670.59 300.847L672.107 312.695L667.401 313.298L665.884 301.45L657.409 302.534L659.246 316.881L654.54 317.483L652.061 298.118Z" fill="#17ABBF"/>
<path d="M655.266 329.649L680.721 328.402L680.242 318.631L684.981 318.399L686.186 342.994L681.447 343.226L680.968 333.455L655.514 334.702L655.266 329.649Z" fill="#17ABBF"/>
<path d="M655.882 353.616L685.482 364.953L685.035 372.35L654.285 380.04L654.599 374.843L682.194 367.846L682.126 368.977L655.568 358.813L655.882 353.616ZM662.099 359.313L666.814 359.598L665.857 375.439L661.142 375.154L662.099 359.313Z" fill="#17ABBF"/>
<path d="M651.668 392.875C651.988 390.687 652.657 388.769 653.676 387.122C654.692 385.488 655.99 384.207 657.568 383.278C659.159 382.365 660.952 381.898 662.949 381.879L662.98 387.187C661.143 387.371 659.639 388.078 658.469 389.307C657.298 390.551 656.58 392.072 656.317 393.873C656.161 394.939 656.181 395.967 656.376 396.957C656.57 397.948 656.944 398.78 657.496 399.455C658.046 400.143 658.785 400.555 659.713 400.691C660.128 400.752 660.519 400.738 660.885 400.65C661.266 400.564 661.615 400.403 661.932 400.167C662.247 399.944 662.547 399.634 662.832 399.237C663.128 398.856 663.399 398.401 663.646 397.871L667.06 390.478C667.351 389.842 667.713 389.159 668.145 388.43C668.588 387.717 669.145 387.056 669.813 386.446C670.494 385.853 671.31 385.399 672.261 385.085C673.224 384.788 674.363 384.735 675.679 384.927C677.604 385.208 679.146 385.929 680.306 387.088C681.478 388.264 682.269 389.723 682.679 391.466C683.087 393.223 683.137 395.111 682.827 397.131C682.514 399.178 681.894 400.955 680.967 402.46C680.053 403.967 678.867 405.166 677.408 406.056C675.948 406.946 674.265 407.478 672.358 407.652L672.21 402.135C673.295 402.067 674.251 401.769 675.078 401.239C675.916 400.725 676.596 400.039 677.118 399.182C677.637 398.338 677.985 397.406 678.163 396.386C678.322 395.391 678.306 394.441 678.113 393.535C677.931 392.646 677.588 391.896 677.084 391.285C676.577 390.687 675.936 390.332 675.16 390.219C674.426 390.111 673.791 390.245 673.256 390.619C672.734 390.996 672.287 391.489 671.915 392.1C671.555 392.726 671.235 393.365 670.956 394.017L668.677 399.158C668.376 399.864 667.993 400.649 667.527 401.515C667.061 402.38 666.469 403.191 665.75 403.949C665.031 404.707 664.147 405.285 663.099 405.683C662.049 406.096 660.776 406.193 659.28 405.974C657.729 405.747 656.413 405.223 655.331 404.4C654.261 403.593 653.418 402.586 652.802 401.378C652.186 400.171 651.788 398.833 651.606 397.364C651.423 395.908 651.444 394.412 651.668 392.875Z" fill="#17ABBF"/>
<path d="M649.848 407.807L679.285 414.682L676.445 426.845C676.378 427.131 676.278 427.496 676.146 427.939C676.028 428.386 675.89 428.792 675.732 429.158C675.076 430.801 674.182 432.072 673.052 432.973C671.919 433.887 670.623 434.453 669.163 434.673C667.714 434.909 666.178 434.838 664.556 434.459C662.948 434.084 661.54 433.468 660.332 432.611C659.137 431.757 658.234 430.669 657.623 429.348C657.008 428.04 656.769 426.511 656.905 424.761C656.939 424.367 656.997 423.935 657.078 423.465C657.156 423.009 657.226 422.644 657.29 422.372L658.98 415.135L648.697 412.734L649.848 407.807ZM663.58 416.209L661.937 423.242C661.874 423.514 661.816 423.824 661.764 424.171C661.711 424.518 661.693 424.844 661.707 425.15C661.721 426.015 661.932 426.74 662.342 427.324C662.749 427.922 663.257 428.393 663.866 428.736C664.473 429.094 665.089 429.345 665.716 429.492C666.343 429.638 667.008 429.686 667.71 429.634C668.422 429.599 669.093 429.404 669.722 429.048C670.348 428.705 670.859 428.149 671.254 427.379C671.403 427.112 671.524 426.81 671.617 426.472C671.724 426.138 671.809 425.834 671.873 425.562L673.515 418.529L663.58 416.209Z" fill="#17ABBF"/>
<path d="M643.671 432.972L672.446 442.238L666.461 460.821L661.945 459.367L666.379 445.599L659.285 443.315L655.624 454.685L651.108 453.23L654.769 441.861L646.636 439.242L642.203 453.009L637.687 451.555L643.671 432.972Z" fill="#17ABBF"/>
<path d="M636.987 453.677L647.18 468.994L664.799 465.527L662.427 471.247L649.958 473.531L657.176 483.91L654.788 489.67L644.792 474.753L626.767 478.324L629.139 472.603L642.007 470.235L634.599 459.436L636.987 453.677Z" fill="#17ABBF"/>
<path d="M618.099 495.383L643.881 511.167L641.502 515.052L617.781 512.788L630.585 532.884L628.206 536.769L602.425 520.985L604.891 516.957L621.416 527.074L609.736 509.043L610.788 507.324L632.147 509.546L615.622 499.429L618.099 495.383Z" fill="#17ABBF"/>
<path d="M600.208 523.968L618.48 549.868L613.99 555.762L584.167 545.026L587.322 540.884L614.139 550.44L613.452 551.341L597.054 528.109L600.208 523.968ZM602.2 532.162L605.958 535.024L596.341 547.649L592.583 544.787L602.2 532.162Z" fill="#17ABBF"/>
<path d="M582.289 547.034L604.654 567.371L596.251 576.613C596.053 576.83 595.789 577.1 595.457 577.423C595.136 577.755 594.818 578.043 594.502 578.286C593.129 579.401 591.729 580.077 590.304 580.313C588.869 580.559 587.461 580.423 586.079 579.904C584.698 579.405 583.391 578.595 582.159 577.475C580.337 575.818 579.187 573.931 578.71 571.813C578.243 569.705 578.721 567.558 580.143 565.37L581.458 563.643L586.697 557.881L578.885 550.777L582.289 547.034ZM570.609 559.878L583.721 563.744L581.1 568.312L566.753 564.118L570.609 559.878ZM590.192 561.059L585.334 566.401C585.145 566.609 584.944 566.851 584.729 567.129C584.515 567.406 584.339 567.682 584.204 567.956C583.794 568.719 583.626 569.455 583.699 570.165C583.763 570.885 583.978 571.543 584.343 572.14C584.699 572.747 585.115 573.268 585.591 573.701C586.067 574.134 586.625 574.499 587.263 574.795C587.902 575.112 588.583 575.268 589.306 575.263C590.02 575.269 590.737 575.032 591.457 574.552C591.717 574.391 591.97 574.186 592.215 573.936C592.471 573.696 592.694 573.472 592.882 573.265L597.74 567.923L590.192 561.059Z" fill="#17ABBF"/>
<path d="M563.962 566.745L584.541 588.889L580.835 592.333L571.289 582.061L571.993 600.55L567.441 604.78L566.871 585.078L546.217 583.237L550.922 578.864L569.86 580.523L560.256 570.189L563.962 566.745Z" fill="#17ABBF"/>
<path d="M545.18 583.825L563.922 607.543L548.604 619.647L545.663 615.925L557.011 606.957L552.391 601.11L543.019 608.516L540.077 604.793L549.449 597.388L544.152 590.684L532.804 599.651L529.862 595.929L545.18 583.825Z" fill="#17ABBF"/>
<path d="M519.838 602.809L534.023 623.981L542.15 618.536L544.791 622.478L524.333 636.184L521.693 632.242L529.82 626.797L515.635 605.624L519.838 602.809Z" fill="#17ABBF"/>
<path d="M500.098 615.399L505.635 646.608L499.065 650.037L476.63 627.647L481.245 625.239L501.461 645.282L500.457 645.806L495.482 617.808L500.098 615.399ZM498.419 623.663L500.605 627.851L486.535 635.194L484.35 631.006L498.419 623.663Z" fill="#17ABBF"/>
<path d="M464.187 632.042C466.228 631.19 468.216 630.777 470.153 630.803C472.077 630.835 473.843 631.288 475.452 632.164C477.053 633.058 478.376 634.356 479.42 636.059L474.883 638.816C473.78 637.335 472.401 636.409 470.745 636.038C469.076 635.673 467.402 635.841 465.723 636.541C464.729 636.956 463.857 637.502 463.108 638.178C462.359 638.855 461.837 639.603 461.543 640.424C461.235 641.25 461.262 642.095 461.623 642.961C461.784 643.348 461.997 643.676 462.261 643.945C462.53 644.227 462.848 644.443 463.214 644.594C463.567 644.75 463.987 644.848 464.474 644.887C464.953 644.945 465.483 644.944 466.064 644.883L474.161 644.008C474.856 643.93 475.628 643.889 476.475 643.884C477.314 643.897 478.168 644.034 479.034 644.294C479.894 644.573 480.702 645.039 481.461 645.693C482.211 646.366 482.843 647.316 483.354 648.543C484.104 650.338 484.279 652.031 483.882 653.623C483.477 655.232 482.632 656.661 481.348 657.909C480.052 659.163 478.458 660.177 476.567 660.951C474.65 661.735 472.807 662.117 471.04 662.097C469.277 662.089 467.639 661.688 466.125 660.894C464.611 660.101 463.289 658.931 462.159 657.386L466.813 654.42C467.43 655.316 468.178 655.982 469.057 656.418C469.929 656.873 470.867 657.104 471.871 657.11C472.861 657.121 473.84 656.94 474.806 656.567C475.741 656.192 476.548 655.689 477.224 655.058C477.894 654.445 478.361 653.765 478.625 653.018C478.877 652.276 478.852 651.543 478.55 650.82C478.264 650.136 477.823 649.66 477.227 649.393C476.635 649.139 475.982 649.01 475.268 649.005C474.545 649.018 473.833 649.073 473.13 649.169L467.549 649.86C466.789 649.964 465.918 650.04 464.937 650.085C463.955 650.131 462.954 650.04 461.934 649.814C460.915 649.587 459.965 649.127 459.084 648.433C458.19 647.744 457.452 646.702 456.87 645.308C456.266 643.861 456.039 642.462 456.188 641.111C456.33 639.778 456.76 638.537 457.478 637.388C458.197 636.239 459.139 635.209 460.306 634.298C461.46 633.392 462.753 632.64 464.187 632.042Z" fill="#17ABBF"/>
<path d="M450.456 638.158L459.698 666.94L447.806 670.759C447.526 670.849 447.162 670.951 446.713 671.066C446.269 671.194 445.85 671.284 445.456 671.337C443.709 671.619 442.159 671.507 440.806 671.001C439.439 670.499 438.286 669.678 437.347 668.539C436.399 667.418 435.671 666.064 435.162 664.479C434.657 662.906 434.461 661.382 434.575 659.905C434.693 658.441 435.161 657.107 435.98 655.904C436.785 654.704 437.974 653.713 439.545 652.929C439.901 652.756 440.301 652.583 440.745 652.411C441.177 652.243 441.525 652.116 441.792 652.031L448.867 649.759L445.639 639.705L450.456 638.158ZM450.312 654.256L443.436 656.464C443.169 656.549 442.874 656.659 442.549 656.793C442.225 656.926 441.935 657.078 441.681 657.248C440.946 657.704 440.433 658.259 440.142 658.91C439.839 659.567 439.696 660.244 439.715 660.944C439.721 661.648 439.822 662.306 440.019 662.919C440.215 663.532 440.516 664.126 440.922 664.702C441.318 665.295 441.83 665.769 442.459 666.126C443.075 666.487 443.815 666.639 444.678 666.582C444.984 666.572 445.305 666.52 445.643 666.427C445.984 666.346 446.289 666.263 446.555 666.178L453.431 663.97L450.312 654.256Z" fill="#17ABBF"/>
<path d="M425.695 645.802L432.545 675.245L413.529 679.669L412.454 675.048L426.542 671.771L424.853 664.512L413.219 667.219L412.144 662.598L423.778 659.891L421.842 651.569L407.755 654.847L406.68 650.226L425.695 645.802Z" fill="#17ABBF"/>
<path d="M404.492 650.718L396.601 667.338L408.637 680.663L402.511 681.572L394.138 672.054L388.951 683.583L382.783 684.498L390.433 668.253L378.099 654.633L384.225 653.724L392.875 663.54L398.324 651.633L404.492 650.718Z" fill="#17ABBF"/>
<path d="M350.044 656.212L348.966 686.422L344.414 686.26L334.729 664.488L323.518 685.515L318.966 685.352L320.043 655.142L324.763 655.31L324.073 674.674L334.036 655.641L336.05 655.713L344.612 675.407L345.302 656.043L350.044 656.212Z" fill="#17ABBF"/>
<path d="M316.251 654.672L302.675 683.314L295.334 682.3L290.028 651.051L295.185 651.764L300.043 679.814L298.92 679.659L311.093 653.96L316.251 654.672ZM310.094 660.434L309.448 665.113L293.726 662.942L294.372 658.263L310.094 660.434Z" fill="#17ABBF"/>
<path d="M287.512 650.428L280.784 679.899L268.607 677.12C268.32 677.054 267.955 676.956 267.511 676.826C267.064 676.71 266.657 676.574 266.291 676.419C264.644 675.77 263.368 674.883 262.462 673.757C261.543 672.629 260.97 671.335 260.743 669.877C260.499 668.429 260.563 666.893 260.933 665.269C261.481 662.868 262.561 660.939 264.17 659.484C265.777 658.042 267.883 657.403 270.487 657.566L272.637 657.863L280.23 659.597L282.58 649.302L287.512 650.428ZM270.586 646.564L273.661 659.884L268.394 659.845L264.999 645.289L270.586 646.564ZM279.178 664.202L272.138 662.594C271.865 662.532 271.555 662.476 271.208 662.425C270.86 662.374 270.534 662.357 270.229 662.374C269.363 662.392 268.64 662.607 268.057 663.019C267.461 663.429 266.993 663.939 266.653 664.551C266.299 665.159 266.05 665.777 265.907 666.404C265.763 667.032 265.719 667.697 265.774 668.398C265.813 669.11 266.012 669.78 266.371 670.408C266.716 671.032 267.275 671.54 268.047 671.932C268.315 672.079 268.618 672.198 268.956 672.29C269.291 672.395 269.594 672.479 269.867 672.541L276.908 674.148L279.178 664.202Z" fill="#17ABBF"/>
<path d="M261.216 644.108L251.992 672.896L247.174 671.352L251.453 657.998L235.679 667.669L229.761 665.773L246.658 655.624L238.146 636.716L244.263 638.676L252.093 655.999L256.398 642.564L261.216 644.108Z" fill="#17ABBF"/>
<path d="M237.235 636.142L225.721 664.093L207.669 656.657L209.477 652.27L222.85 657.779L225.689 650.889L214.644 646.339L216.452 641.952L227.496 646.502L230.75 638.602L217.377 633.093L219.184 628.706L237.235 636.142Z" fill="#17ABBF"/>
<path d="M208.25 623.303L196.708 646.025L205.43 650.456L203.282 654.686L181.327 643.534L183.476 639.304L192.198 643.734L203.739 621.012L208.25 623.303Z" fill="#17ABBF"/>
<path d="M187.602 612.221L163.076 632.299L156.875 628.242L165.45 597.728L169.806 600.578L162.194 628.01L161.246 627.389L183.245 609.371L187.602 612.221ZM179.571 614.794L176.985 618.747L163.705 610.057L166.291 606.105L179.571 614.794Z" fill="#17ABBF"/>
<path d="M155.591 589.07C157.332 590.433 158.665 591.965 159.59 593.667C160.504 595.36 160.973 597.123 160.996 598.954C161 600.788 160.515 602.577 159.541 604.32L154.917 601.713C155.669 600.026 155.801 598.37 155.314 596.745C154.816 595.111 153.851 593.733 152.418 592.611C151.57 591.947 150.667 591.454 149.711 591.131C148.754 590.809 147.846 590.72 146.987 590.865C146.116 591.001 145.392 591.438 144.814 592.176C144.555 592.507 144.373 592.853 144.267 593.215C144.153 593.588 144.12 593.97 144.168 594.363C144.205 594.748 144.325 595.162 144.528 595.605C144.712 596.052 144.973 596.513 145.31 596.991L150.035 603.623C150.444 604.191 150.857 604.844 151.276 605.581C151.675 606.32 151.973 607.131 152.17 608.014C152.348 608.899 152.337 609.833 152.137 610.814C151.918 611.798 151.399 612.813 150.579 613.86C149.38 615.392 147.989 616.374 146.407 616.805C144.805 617.24 143.145 617.203 141.428 616.694C139.7 616.176 138.036 615.282 136.436 614.012C134.814 612.724 133.579 611.304 132.733 609.752C131.877 608.212 131.425 606.587 131.376 604.878C131.328 603.169 131.701 601.444 132.496 599.702L137.359 602.31C136.88 603.286 136.665 604.264 136.715 605.245C136.745 606.228 137.003 607.159 137.488 608.037C137.963 608.906 138.599 609.671 139.398 610.331C140.182 610.964 141.016 611.421 141.897 611.702C142.759 611.986 143.581 612.06 144.362 611.925C145.132 611.782 145.759 611.401 146.242 610.784C146.699 610.2 146.898 609.583 146.839 608.932C146.771 608.292 146.564 607.66 146.219 607.034C145.854 606.41 145.457 605.815 145.03 605.249L141.697 600.72C141.233 600.109 140.742 599.386 140.222 598.552C139.701 597.718 139.291 596.801 138.989 595.801C138.688 594.801 138.625 593.747 138.799 592.639C138.962 591.523 139.509 590.37 140.441 589.18C141.407 587.945 142.516 587.063 143.767 586.532C144.999 586.003 146.292 585.771 147.645 585.835C148.999 585.9 150.359 586.218 151.724 586.789C153.079 587.352 154.368 588.112 155.591 589.07Z" fill="#17ABBF"/>
<path d="M143.433 580.001L122.868 602.157L113.713 593.66C113.498 593.46 113.23 593.193 112.911 592.858C112.582 592.534 112.297 592.212 112.058 591.895C110.957 590.51 110.295 589.103 110.074 587.676C109.842 586.238 109.992 584.832 110.525 583.455C111.039 582.079 111.862 580.781 112.995 579.56C114.118 578.35 115.352 577.433 116.695 576.808C118.029 576.194 119.421 575.949 120.871 576.073C122.312 576.188 123.758 576.738 125.211 577.724C125.536 577.949 125.883 578.214 126.251 578.517C126.608 578.811 126.889 579.053 127.095 579.243L132.541 584.299L139.725 576.559L143.433 580.001ZM129.328 587.761L124.035 582.848C123.83 582.657 123.59 582.453 123.314 582.236C123.039 582.018 122.765 581.84 122.492 581.702C121.734 581.285 121 581.109 120.289 581.175C119.568 581.232 118.907 581.439 118.307 581.799C117.696 582.148 117.172 582.559 116.734 583.031C116.296 583.502 115.925 584.056 115.622 584.691C115.299 585.327 115.136 586.007 115.133 586.73C115.12 587.443 115.35 588.162 115.823 588.887C115.981 589.149 116.184 589.404 116.431 589.652C116.668 589.911 116.889 590.135 117.094 590.326L122.387 595.238L129.328 587.761Z" fill="#17ABBF"/>
<path d="M124.721 562.247L102.438 582.674L89.2454 568.283L92.7426 565.077L102.517 575.739L108.01 570.703L99.9383 561.898L103.435 558.692L111.507 567.497L117.805 561.723L108.031 551.062L111.528 547.856L124.721 562.247Z" fill="#17ABBF"/>
<path d="M109.948 546.099L91.5951 547.395L85.9061 564.426L82.104 559.538L86.2778 547.568L73.6878 548.718L69.86 543.796L87.7673 542.474L93.5668 525.038L97.3689 529.926L93.0717 542.284L106.12 541.178L109.948 546.099Z" fill="#17ABBF"/>
<path d="M78.6326 501.79L51.7908 515.694L49.6955 511.649L63.8997 492.517L40.0781 493.084L37.9828 489.039L64.8246 475.134L66.9972 479.328L49.7923 488.241L71.2651 487.567L72.1921 489.357L59.2455 506.489L76.4504 497.577L78.6326 501.79Z" fill="#17ABBF"/>
<path d="M63.3982 471.644L31.7796 473.862L29.0624 466.967L53.6917 447.016L55.6007 451.86L33.5386 469.851L33.123 468.797L61.4893 466.8L63.3982 471.644ZM55.3573 469.104L50.9629 470.836L45.1436 456.071L49.538 454.339L55.3573 469.104Z" fill="#17ABBF"/>
<path d="M52.9783 444.447L23.9907 453.023L20.4473 441.045C20.364 440.763 20.2702 440.397 20.166 439.946C20.0484 439.5 19.9676 439.078 19.9235 438.683C19.6822 436.93 19.8303 435.383 20.3676 434.042C20.9009 432.687 21.7477 431.553 22.9081 430.641C24.051 429.719 25.421 429.022 27.018 428.549C29.38 427.851 31.5898 427.846 33.6475 428.537C35.6918 429.231 37.2805 430.753 38.4136 433.103L39.2082 435.123L41.4176 442.591L51.5431 439.596L52.9783 444.447ZM48.0533 427.8L37.9483 437.006L35.4022 432.396L46.4276 422.304L48.0533 427.8ZM36.8882 443.931L34.8397 437.006C34.7602 436.738 34.6575 436.44 34.5314 436.113C34.4053 435.785 34.2603 435.492 34.0964 435.234C33.6569 434.489 33.1147 433.963 32.4697 433.658C31.8208 433.339 31.1465 433.181 30.4467 433.183C29.743 433.173 29.0825 433.259 28.4651 433.441C27.8478 433.624 27.2468 433.911 26.6622 434.303C26.0602 434.685 25.5737 435.187 25.2027 435.807C24.8277 436.415 24.6587 437.15 24.6956 438.015C24.6984 438.321 24.7428 438.643 24.8286 438.983C24.901 439.326 24.9769 439.632 25.0563 439.901L27.1049 446.826L36.8882 443.931Z" fill="#17ABBF"/>
<path d="M45.5861 418.352L15.9699 424.41L14.956 419.454L28.6946 416.643L12.5368 407.628L11.2914 401.54L28.4159 411.3L40.7309 394.618L42.0183 400.911L30.7512 416.222L44.5721 413.395L45.5861 418.352Z" fill="#17ABBF"/>
<path d="M40.8073 393.684L10.8022 397.361L8.42755 377.983L13.1367 377.406L14.896 391.762L22.293 390.856L20.8402 379L25.5493 378.422L27.0022 390.279L35.4828 389.239L33.7234 374.883L38.4326 374.306L40.8073 393.684Z" fill="#17ABBF"/>
<path d="M37.7666 362.112L12.3057 363.222L12.7318 372.995L7.99191 373.202L6.91942 348.601L11.6593 348.394L12.0853 358.167L37.5463 357.057L37.7666 362.112Z" fill="#17ABBF"/>
<path d="M37.2819 338.147L7.74371 326.651L8.23045 319.257L39.0207 311.732L38.6787 316.927L11.0466 323.776L11.1211 322.645L37.6239 332.952L37.2819 338.147ZM31.0952 332.417L26.382 332.107L27.4244 316.271L32.1376 316.581L31.0952 332.417Z" fill="#17ABBF"/>
<path d="M41.6991 298.938C41.3677 301.125 40.6883 303.039 39.6609 304.681C38.6356 306.309 37.3312 307.583 35.7479 308.504C34.1528 309.409 32.3566 309.866 30.3594 309.874L30.3573 304.566C32.1955 304.391 33.7028 303.693 34.879 302.47C36.0573 301.233 36.7828 299.715 37.0555 297.916C37.217 296.851 37.203 295.822 37.0136 294.831C36.8241 293.84 36.4551 293.005 35.9067 292.328C35.3604 291.636 34.6237 291.22 33.6966 291.08C33.2815 291.017 32.8905 291.028 32.5236 291.114C32.1429 291.198 31.7932 291.357 31.4745 291.592C31.1579 291.813 30.8564 292.121 30.57 292.517C30.2718 292.896 29.9978 293.35 29.7478 293.878L26.2944 301.253C26 301.888 25.6349 302.569 25.1992 303.296C24.7518 304.006 24.1919 304.665 23.5198 305.27C22.8358 305.86 22.0175 306.31 21.0648 306.618C20.1004 306.911 18.9609 306.957 17.6464 306.758C15.723 306.467 14.1844 305.738 13.0306 304.572C11.865 303.391 11.0818 301.927 10.681 300.182C10.2824 298.423 10.2431 296.534 10.5631 294.516C10.8874 292.47 11.5171 290.697 12.4522 289.197C13.3736 287.695 14.5664 286.503 16.0306 285.62C17.4949 284.738 19.1808 284.215 21.0882 284.052L21.2074 289.569C20.1222 289.631 19.1647 289.924 18.3349 290.45C17.4933 290.959 16.8096 291.641 16.2837 292.496C15.7599 293.336 15.4066 294.267 15.2237 295.286C15.0589 296.281 15.0705 297.231 15.2588 298.137C15.4352 299.027 15.7742 299.779 16.2757 300.393C16.7792 300.993 17.4184 301.352 18.1933 301.469C18.9267 301.58 19.5621 301.45 20.0997 301.079C20.6234 300.705 21.073 300.214 21.4483 299.606C21.8119 298.982 22.135 298.344 22.4176 297.693L24.7237 292.565C25.0286 291.861 25.4163 291.077 25.8868 290.214C26.3574 289.352 26.9541 288.543 27.677 287.789C28.4 287.035 29.2866 286.462 30.337 286.069C31.3895 285.663 32.663 285.572 34.1574 285.799C35.7071 286.034 37.0208 286.566 38.0983 287.394C39.1642 288.207 40.0017 289.219 40.6109 290.429C41.22 291.64 41.6114 292.98 41.7849 294.45C41.9605 295.906 41.9319 297.403 41.6991 298.938Z" fill="#17ABBF"/>
<path d="M43.6055 283.989L14.2061 276.954L17.1131 264.806C17.1815 264.52 17.2831 264.156 17.4178 263.713C17.5389 263.268 17.6791 262.862 17.8383 262.497C18.5041 260.858 19.4044 259.591 20.5393 258.697C21.6775 257.79 22.9771 257.23 24.438 257.018C25.8885 256.79 27.4236 256.869 29.0433 257.257C30.6494 257.641 32.0542 258.265 33.2578 259.129C34.4477 259.989 35.3447 261.082 35.9487 262.406C36.556 263.717 36.787 265.248 36.6417 266.997C36.6049 267.391 36.5448 267.823 36.4613 268.292C36.381 268.748 36.3083 269.112 36.2431 269.384L34.5136 276.611L44.783 279.069L43.6055 283.989ZM29.9199 275.512L31.6006 268.489C31.6658 268.217 31.7255 267.907 31.7797 267.56C31.8339 267.214 31.8543 266.888 31.8411 266.582C31.8323 265.717 31.6247 264.991 31.2183 264.404C30.8151 263.804 30.3096 263.33 29.7019 262.984C29.0974 262.623 28.4821 262.368 27.856 262.218C27.23 262.068 26.5658 262.017 25.8636 262.065C25.1511 262.096 24.4792 262.288 23.848 262.64C23.2201 262.979 22.7063 263.533 22.3067 264.301C22.1566 264.567 22.0341 264.869 21.939 265.206C21.8304 265.539 21.7435 265.842 21.6784 266.114L19.9977 273.138L29.9199 275.512Z" fill="#17ABBF"/>
<path d="M49.9186 258.876L21.195 249.454L27.2801 230.904L31.7881 232.382L27.2799 246.126L34.3611 248.449L38.0841 237.099L42.5921 238.578L38.8691 249.927L46.9875 252.59L51.4957 238.847L56.0037 240.326L49.9186 258.876Z" fill="#17ABBF"/>
<path d="M56.7118 238.219L46.601 222.847L28.9644 226.219L31.3671 220.511L43.8482 218.295L36.6857 207.877L39.1047 202.13L49.02 217.101L67.0639 213.627L64.6612 219.335L51.7809 221.634L59.1308 232.472L56.7118 238.219Z" fill="#17ABBF"/>
<path d="M80.0893 189.174L54.8432 172.547L57.3488 168.742L80.9816 171.789L68.849 151.28L71.3546 147.476L96.6007 164.103L94.0028 168.048L77.8207 157.39L88.8993 175.797L87.7908 177.48L66.5167 174.554L82.6988 185.211L80.0893 189.174Z" fill="#17ABBF"/>
<path d="M98.9375 161.16L81.5311 134.671L86.2138 128.927L115.665 140.643L112.376 144.678L85.8891 134.242L86.6055 133.364L102.227 157.125L98.9375 161.16ZM97.2174 152.905L93.5566 149.92L103.585 137.62L107.246 140.604L97.2174 152.905Z" fill="#17ABBF"/>
<path d="M117.603 138.712L95.9199 117.649L104.623 108.689C104.828 108.478 105.101 108.217 105.443 107.905C105.775 107.584 106.102 107.307 106.426 107.075C107.835 106.005 109.256 105.376 110.689 105.187C112.131 104.988 113.534 105.17 114.898 105.734C116.262 106.279 117.541 107.131 118.735 108.291C120.502 110.008 121.589 111.932 121.996 114.064C122.393 116.186 121.845 118.317 120.352 120.456L118.981 122.139L113.554 127.725L121.128 135.083L117.603 138.712ZM129.7 126.259L116.722 121.964L119.492 117.485L133.693 122.148L129.7 126.259ZM110.166 124.434L115.198 119.254C115.393 119.054 115.602 118.818 115.826 118.547C116.05 118.277 116.234 118.007 116.378 117.738C116.813 116.989 117.005 116.259 116.955 115.547C116.915 114.825 116.722 114.16 116.377 113.551C116.042 112.933 115.643 112.399 115.181 111.951C114.719 111.502 114.174 111.119 113.546 110.801C112.918 110.464 112.242 110.286 111.519 110.267C110.806 110.237 110.082 110.451 109.346 110.907C109.081 111.059 108.822 111.256 108.568 111.497C108.304 111.729 108.075 111.945 107.88 112.145L102.848 117.325L110.166 124.434Z" fill="#17ABBF"/>
<path d="M136.571 119.613L116.733 96.8031L120.55 93.4831L129.753 104.064L129.659 85.5618L134.347 81.4841L134.268 101.195L154.85 103.715L150.003 107.931L131.13 105.648L140.388 116.293L136.571 119.613Z" fill="#17ABBF"/>
<path d="M155.914 103.149L137.967 78.8243L153.677 67.2333L156.493 71.051L144.854 79.6383L149.279 85.6352L158.891 78.5435L161.708 82.3612L152.096 89.4529L157.168 96.3281L168.807 87.7408L171.624 91.5585L155.914 103.149Z" fill="#17ABBF"/>
<path d="M181.836 85.0435L168.358 63.4141L160.056 68.5878L157.546 64.5613L178.445 51.5383L180.954 55.5648L172.652 60.7385L186.13 82.3679L181.836 85.0435Z" fill="#17ABBF"/>
<path d="M202.038 73.0827L197.545 41.7065L204.225 38.499L225.901 61.6247L221.208 63.8781L201.671 43.1716L202.693 42.6809L206.731 70.8293L202.038 73.0827ZM203.991 64.8795L201.946 60.6215L216.253 53.7521L218.297 58.0101L203.991 64.8795Z" fill="#17ABBF"/>
<path d="M238.382 57.6825C236.314 58.4658 234.313 58.8124 232.378 58.7223C230.457 58.6271 228.706 58.1154 227.127 57.187C225.557 56.2406 224.278 54.8992 223.291 53.163L227.916 50.5578C228.97 52.0743 230.318 53.0453 231.96 53.4706C233.616 53.8909 235.295 53.7788 236.996 53.1343C238.004 52.7525 238.893 52.236 239.664 51.5848C240.435 50.9336 240.981 50.2028 241.303 49.3926C241.638 48.5773 241.639 47.7313 241.307 46.8544C241.158 46.4618 240.956 46.1267 240.701 45.8491C240.442 45.5584 240.131 45.3317 239.77 45.1691C239.423 45.0016 239.006 44.89 238.521 44.8343C238.044 44.7605 237.514 44.7443 236.931 44.7855L228.81 45.3926C228.113 45.4473 227.34 45.463 226.494 45.4397C225.655 45.3982 224.807 45.2332 223.949 44.9445C223.099 44.6377 222.307 44.1449 221.57 43.466C220.842 42.769 220.243 41.7988 219.772 40.5555C219.083 38.7363 218.963 37.0381 219.413 35.4608C219.872 33.8655 220.763 32.4653 222.087 31.2602C223.425 30.0501 225.051 29.0897 226.967 28.379C228.909 27.6583 230.763 27.3376 232.529 27.4168C234.29 27.483 235.914 27.9379 237.401 28.7814C238.888 29.6249 240.17 30.8376 241.249 32.4196L236.499 35.2292C235.913 34.3138 235.187 33.6234 234.322 33.1578C233.466 32.6742 232.536 32.4128 231.533 32.3735C230.544 32.3293 229.56 32.4776 228.582 32.8183C227.634 33.1622 226.812 33.6383 226.115 34.2467C225.425 34.8371 224.936 35.5013 224.647 36.2394C224.371 36.9725 224.372 37.7055 224.649 38.4384C224.912 39.132 225.337 39.622 225.925 39.9083C226.507 40.1816 227.155 40.3326 227.87 40.3613C228.592 40.372 229.306 40.3409 230.012 40.2681L235.612 39.7629C236.375 39.6833 237.248 39.637 238.231 39.6239C239.214 39.6108 240.211 39.7344 241.222 39.9947C242.234 40.255 243.168 40.7466 244.026 41.4694C244.896 42.1872 245.599 43.2528 246.135 44.6663C246.69 46.1321 246.871 47.5377 246.677 48.8831C246.492 50.2106 246.021 51.4366 245.264 52.5611C244.508 53.6857 243.532 54.6841 242.336 55.5562C241.153 56.4234 239.835 57.1322 238.382 57.6825Z" fill="#17ABBF"/>
<path d="M252.393 51.9976L244.119 22.9224L256.133 19.5037C256.416 19.4233 256.783 19.3333 257.235 19.2338C257.683 19.1209 258.105 19.0445 258.501 19.0045C260.256 18.7815 261.802 18.9455 263.137 19.4967C264.486 20.0441 265.611 20.9027 266.511 22.0725C267.421 23.2249 268.104 24.6021 268.56 26.2039C269.012 27.7923 269.156 29.3226 268.993 30.795C268.826 32.2539 268.314 33.5712 267.455 34.7468C266.61 35.9185 265.389 36.8698 263.793 37.6005C263.431 37.7616 263.025 37.9207 262.575 38.0779C262.139 38.2312 261.786 38.3462 261.517 38.4228L254.369 40.4568L257.259 50.6129L252.393 51.9976ZM253.076 35.9138L260.022 33.9372C260.291 33.8606 260.59 33.761 260.919 33.6383C261.248 33.5156 261.542 33.3737 261.802 33.2125C262.552 32.7807 263.083 32.244 263.395 31.6022C263.721 30.9567 263.886 30.284 263.891 29.5843C263.909 28.8807 263.83 28.2193 263.653 27.6001C263.477 26.9809 263.196 26.377 262.81 25.7883C262.434 25.1824 261.938 24.6907 261.321 24.3133C260.718 23.932 259.984 23.7553 259.119 23.7832C258.813 23.7829 258.49 23.8239 258.15 23.9062C257.806 23.975 257.499 24.0478 257.23 24.1244L250.284 26.1009L253.076 35.9138Z" fill="#17ABBF"/>
<path d="M277.446 45.1763L271.588 15.5199L290.741 11.7365L291.66 16.3909L277.471 19.1939L278.915 26.505L290.633 24.1902L291.553 28.8446L279.834 31.1594L281.49 39.5415L295.68 36.7385L296.599 41.3929L277.446 45.1763Z" fill="#17ABBF"/>
<path d="M298.687 40.994L307.122 24.6428L295.532 10.9282L301.684 10.222L309.739 20.0107L315.303 8.6589L321.497 7.94796L313.316 23.9319L325.195 37.9515L319.042 38.6577L310.72 28.5616L304.881 40.2831L298.687 40.994Z" fill="#17ABBF"/>
</svg>
