<svg width="607" height="608" viewBox="0 0 607 608" fill="none" xmlns="http://www.w3.org/2000/svg">
<path d="M306.688 33.0505L308.223 6.62492L312.205 6.85619L320.257 26.105L330.483 7.91767L334.465 8.14894L332.93 34.5745L328.801 34.3347L329.785 17.3966L320.69 33.8636L318.928 33.7613L311.819 16.3533L310.835 33.2913L306.688 33.0505Z" fill="black"/>
<path d="M336.164 35.0526L348.607 10.2434L355.013 11.2737L359.05 38.7331L354.549 38.0092L350.842 13.3585L351.822 13.5161L340.665 35.7764L336.164 35.0526ZM341.666 30.1286L342.323 26.0451L356.044 28.2516L355.387 32.3351L341.666 30.1286Z" fill="black"/>
<path d="M361.37 39.3563L367.847 13.6907L378.452 16.3667C378.701 16.4297 379.019 16.5225 379.405 16.6453C379.794 16.7561 380.148 16.8832 380.465 17.0265C381.894 17.6271 382.993 18.429 383.764 19.4324C384.546 20.4387 385.022 21.5825 385.192 22.8639C385.376 24.1364 385.29 25.4797 384.933 26.8937C384.406 28.9849 383.423 30.6517 381.984 31.8938C380.549 33.1241 378.693 33.6417 376.417 33.4465L374.541 33.1436L367.928 31.4751L365.666 40.4402L361.37 39.3563ZM376.11 43.0757L373.684 31.354L378.294 31.4934L380.976 44.3035L376.11 43.0757ZM368.94 27.4648L375.071 29.012C375.309 29.0719 375.579 29.1275 375.882 29.1787C376.185 29.2299 376.471 29.2513 376.738 29.243C377.496 29.2447 378.134 29.0707 378.652 28.7211C379.182 28.3745 379.602 27.9371 379.912 27.4087C380.234 26.8833 380.464 26.3473 380.602 25.8008C380.74 25.2542 380.792 24.6732 380.758 24.0579C380.738 23.4337 380.577 22.8434 380.276 22.2869C379.985 21.7334 379.506 21.2776 378.838 20.9195C378.607 20.7853 378.344 20.6747 378.05 20.5879C377.759 20.4891 377.495 20.4098 377.257 20.3498L371.126 18.8027L368.94 27.4648Z" fill="black"/>
<path d="M384.24 45.4029L392.883 20.3835L397.07 21.83L393.061 33.4362L407.06 25.2811L412.203 27.0576L397.211 35.6089L404.29 52.3291L398.974 50.4925L392.461 35.1736L388.427 46.8493L384.24 45.4029Z" fill="black"/>
<path d="M405.115 52.8665L415.747 28.6253L431.402 35.4913L429.734 39.2959L418.135 34.2091L415.514 40.1852L425.093 44.3861L423.424 48.1906L413.846 43.9897L410.841 50.8413L422.44 55.9281L420.771 59.7326L405.115 52.8665Z" fill="black"/>
<path d="M430.271 64.6927L440.822 45.0288L433.274 40.9787L435.239 37.3181L454.238 47.5129L452.274 51.1735L444.726 47.1234L434.175 66.7872L430.271 64.6927Z" fill="black"/>
<path d="M448.152 74.8141L470.015 57.7163L475.364 61.3892L467.261 87.9345L463.503 85.3541L470.703 61.4886L471.521 62.0504L451.911 77.3945L448.152 74.8141ZM455.233 72.7185L457.574 69.3089L469.03 77.1749L466.689 80.5845L455.233 72.7185Z" fill="black"/>
<path d="M475.765 95.7331C474.268 94.5058 473.13 93.1382 472.354 91.6304C471.587 90.1304 471.211 88.5785 471.226 86.9747C471.258 85.3693 471.718 83.8129 472.605 82.3056L476.602 84.6782C475.911 86.14 475.763 87.5872 476.157 89.0197C476.561 90.4599 477.379 91.685 478.612 92.6948C479.341 93.2929 480.122 93.7423 480.953 94.0431C481.784 94.3438 482.577 94.4393 483.332 94.3295C484.097 94.2275 484.74 93.859 485.26 93.224C485.493 92.9396 485.66 92.6401 485.759 92.3255C485.866 92.0014 485.903 91.6669 485.868 91.322C485.844 90.9848 485.747 90.62 485.577 90.2275C485.425 89.8334 485.206 89.4241 484.92 88.9996L480.913 83.1013C480.566 82.5957 480.217 82.0164 479.865 81.3634C479.53 80.7087 479.285 79.9929 479.13 79.2159C478.991 78.4372 479.019 77.6202 479.213 76.765C479.424 75.9081 479.899 75.0295 480.637 74.129C481.716 72.8116 482.953 71.9792 484.347 71.632C485.758 71.2831 487.21 71.3481 488.703 71.827C490.205 72.3136 491.644 73.1288 493.02 74.2723C494.415 75.4315 495.468 76.6985 496.18 78.0735C496.898 79.439 497.262 80.8702 497.271 82.367C497.281 83.8639 496.92 85.3669 496.19 86.8761L491.984 84.498C492.423 83.6534 492.63 82.8013 492.605 81.9416C492.598 81.0802 492.391 80.2605 491.983 79.4824C491.584 78.7121 491.042 78.0301 490.356 77.4363C489.681 76.8675 488.961 76.4514 488.195 76.1877C487.446 75.9224 486.728 75.8412 486.041 75.9441C485.364 76.0548 484.808 76.3755 484.373 76.9063C483.962 77.4087 483.775 77.9453 483.815 78.5161C483.862 79.0775 484.03 79.6355 484.32 80.1901C484.628 80.7431 484.963 81.2714 485.327 81.7753L488.156 85.8051C488.549 86.3495 488.966 86.9918 489.405 87.7319C489.844 88.4721 490.186 89.2828 490.43 90.1642C490.674 91.0456 490.709 91.9696 490.535 92.936C490.37 93.9102 489.868 94.9091 489.03 95.9327C488.16 96.9943 487.172 97.7454 486.066 98.1859C484.977 98.6248 483.841 98.8028 482.658 98.7199C481.474 98.637 480.29 98.3321 479.105 97.8052C477.931 97.2861 476.817 96.5954 475.765 95.7331Z" fill="black"/>
<path d="M486.248 103.928L504.683 84.9325L512.531 92.5496C512.716 92.7288 512.945 92.9681 513.218 93.2673C513.5 93.5577 513.742 93.8444 513.946 94.1274C514.883 95.3613 515.435 96.6053 515.601 97.8594C515.776 99.1221 515.617 100.351 515.123 101.545C514.647 102.74 513.901 103.86 512.886 104.907C511.878 105.945 510.781 106.724 509.593 107.244C508.413 107.756 507.19 107.943 505.922 107.806C504.664 107.678 503.408 107.168 502.156 106.277C501.875 106.073 501.577 105.835 501.261 105.562C500.954 105.298 500.712 105.081 500.536 104.91L495.866 100.378L489.427 107.013L486.248 103.928ZM498.747 97.41L503.285 101.814C503.46 101.985 503.667 102.168 503.904 102.364C504.141 102.559 504.377 102.72 504.613 102.847C505.269 103.227 505.908 103.395 506.532 103.351C507.164 103.316 507.746 103.147 508.279 102.844C508.82 102.55 509.287 102.201 509.68 101.796C510.073 101.391 510.408 100.914 510.686 100.364C510.981 99.8136 511.136 99.2219 511.153 98.589C511.178 97.9647 510.991 97.3305 510.591 96.6865C510.458 96.4545 510.286 96.2275 510.074 96.0053C509.872 95.7743 509.682 95.5735 509.506 95.4028L504.968 90.999L498.747 97.41Z" fill="black"/>
<path d="M502.306 119.857L522.211 102.409L533.48 115.264L530.356 118.002L522.008 108.478L517.1 112.78L523.995 120.645L520.871 123.384L513.976 115.518L508.351 120.45L516.699 129.974L513.575 132.713L502.306 119.857Z" fill="black"/>
<path d="M514.95 134.314L531.041 133.538L536.355 118.74L539.588 123.094L535.7 133.49L546.744 132.731L549.998 137.114L534.296 137.921L528.878 153.072L525.645 148.718L529.649 137.983L518.204 138.697L514.95 134.314Z" fill="black"/>
<path d="M537.802 167.219L561.24 154.917L563.093 158.449L550.746 175.269L571.603 174.66L573.456 178.192L550.019 190.494L548.097 186.832L563.12 178.947L544.321 179.638L543.5 178.076L554.756 163.012L539.733 170.898L537.802 167.219Z" fill="black"/>
<path d="M551.308 193.59L578.983 191.499L581.395 197.523L559.923 215.109L558.229 210.877L577.462 195.019L577.831 195.94L553.002 197.822L551.308 193.59ZM558.361 195.776L562.2 194.238L567.365 207.14L563.526 208.677L558.361 195.776Z" fill="black"/>
<path d="M560.566 217.374L585.908 209.727L589.067 220.198C589.142 220.445 589.226 220.765 589.319 221.159C589.424 221.55 589.497 221.918 589.537 222.265C589.757 223.798 589.635 225.154 589.171 226.331C588.71 227.519 587.974 228.516 586.962 229.32C585.966 230.133 584.77 230.75 583.374 231.171C581.309 231.794 579.374 231.809 577.569 231.214C575.775 230.616 574.377 229.291 573.374 227.238L572.668 225.473L570.698 218.944L561.846 221.615L560.566 217.374ZM564.958 231.928L573.762 223.818L576.014 227.843L566.408 236.732L564.958 231.928ZM574.658 217.749L576.484 223.803C576.555 224.038 576.647 224.298 576.759 224.585C576.871 224.871 576.999 225.126 577.144 225.352C577.532 226.002 578.009 226.46 578.576 226.724C579.145 227 579.737 227.136 580.349 227.13C580.965 227.136 581.543 227.058 582.083 226.895C582.623 226.732 583.148 226.478 583.658 226.132C584.183 225.794 584.607 225.352 584.929 224.807C585.254 224.274 585.398 223.629 585.362 222.872C585.358 222.604 585.318 222.322 585.241 222.025C585.176 221.725 585.108 221.457 585.037 221.222L583.21 215.169L574.658 217.749Z" fill="black"/>
<path d="M567.168 240.209L593.071 234.762L593.983 239.097L581.966 241.624L596.158 249.441L597.278 254.765L582.236 246.301L571.533 260.968L570.375 255.463L580.168 242.002L568.079 244.544L567.168 240.209Z" fill="black"/>
<path d="M571.483 261.842L597.738 258.481L599.909 275.438L595.788 275.966L594.18 263.403L587.707 264.231L589.035 274.606L584.914 275.133L583.587 264.759L576.166 265.708L577.774 278.271L573.653 278.799L571.483 261.842Z" fill="black"/>
<path d="M574.292 289.481L596.581 288.389L596.162 279.833L600.311 279.63L601.366 301.166L597.217 301.37L596.798 292.814L574.509 293.906L574.292 289.481Z" fill="black"/>
<path d="M574.829 310.513L600.747 320.44L600.356 326.917L573.431 333.65L573.706 329.1L597.869 322.973L597.809 323.964L574.554 315.063L574.829 310.513ZM580.273 315.501L584.401 315.75L583.563 329.622L579.435 329.372L580.273 315.501Z" fill="black"/>
<path d="M571.136 344.92C571.416 343.004 572.002 341.324 572.894 339.882C573.784 338.452 574.92 337.33 576.302 336.516C577.695 335.716 579.266 335.308 581.014 335.291L581.041 339.939C579.432 340.1 578.116 340.719 577.092 341.796C576.066 342.884 575.437 344.217 575.207 345.793C575.071 346.727 575.088 347.627 575.258 348.494C575.429 349.361 575.756 350.09 576.239 350.681C576.721 351.284 577.368 351.645 578.18 351.763C578.544 351.817 578.886 351.805 579.207 351.728C579.54 351.653 579.846 351.511 580.124 351.304C580.4 351.109 580.662 350.838 580.911 350.491C581.171 350.157 581.408 349.758 581.625 349.294L584.614 342.821C584.869 342.263 585.185 341.666 585.564 341.027C585.952 340.403 586.439 339.824 587.025 339.29C587.621 338.77 588.335 338.373 589.168 338.099C590.011 337.838 591.009 337.792 592.161 337.96C593.846 338.206 595.197 338.837 596.213 339.852C597.239 340.882 597.932 342.159 598.291 343.686C598.648 345.224 598.691 346.878 598.42 348.646C598.146 350.439 597.603 351.994 596.791 353.312C595.991 354.632 594.953 355.682 593.674 356.461C592.396 357.24 590.923 357.706 589.253 357.859L589.123 353.028C590.073 352.969 590.91 352.707 591.634 352.243C592.369 351.793 592.964 351.193 593.421 350.442C593.875 349.704 594.18 348.887 594.336 347.994C594.476 347.122 594.461 346.29 594.292 345.498C594.133 344.719 593.833 344.062 593.391 343.527C592.947 343.004 592.386 342.693 591.707 342.594C591.064 342.5 590.508 342.617 590.039 342.944C589.582 343.274 589.191 343.706 588.865 344.24C588.55 344.789 588.27 345.349 588.025 345.92L586.03 350.421C585.766 351.039 585.431 351.727 585.023 352.485C584.615 353.242 584.096 353.953 583.466 354.617C582.837 355.28 582.063 355.786 581.145 356.135C580.226 356.496 579.111 356.581 577.801 356.39C576.443 356.191 575.291 355.732 574.343 355.011C573.406 354.305 572.668 353.423 572.129 352.365C571.59 351.308 571.241 350.137 571.082 348.85C570.922 347.576 570.94 346.266 571.136 344.92Z" fill="black"/>
<path d="M569.537 358.03L595.314 364.049L592.827 374.7C592.768 374.951 592.681 375.27 592.565 375.658C592.461 376.049 592.34 376.405 592.203 376.725C591.628 378.164 590.845 379.277 589.856 380.066C588.864 380.866 587.728 381.362 586.45 381.554C585.181 381.761 583.837 381.699 582.416 381.367C581.008 381.039 579.775 380.499 578.717 379.748C577.671 379.001 576.88 378.049 576.345 376.892C575.807 375.747 575.598 374.408 575.716 372.875C575.747 372.53 575.797 372.151 575.868 371.74C575.936 371.341 575.998 371.022 576.054 370.783L577.534 364.446L568.53 362.344L569.537 358.03ZM581.561 365.387L580.123 371.545C580.068 371.783 580.017 372.055 579.971 372.359C579.925 372.662 579.909 372.948 579.922 373.215C579.934 373.973 580.119 374.608 580.478 375.12C580.834 375.643 581.279 376.055 581.812 376.356C582.343 376.669 582.883 376.889 583.432 377.018C583.981 377.146 584.563 377.187 585.178 377.142C585.801 377.112 586.389 376.94 586.94 376.629C587.488 376.329 587.935 375.842 588.281 375.168C588.412 374.934 588.517 374.669 588.599 374.373C588.693 374.081 588.767 373.815 588.823 373.576L590.261 367.419L581.561 365.387Z" fill="black"/>
<path d="M564.121 380.094L589.317 388.208L584.076 404.48L580.122 403.207L584.004 391.151L577.793 389.151L574.587 399.107L570.632 397.833L573.838 387.877L566.717 385.584L562.835 397.64L558.881 396.366L564.121 380.094Z" fill="black"/>
<path d="M558.257 398.258L567.183 411.67L582.61 408.635L580.533 413.644L569.615 415.644L575.935 424.732L573.844 429.775L565.092 416.714L549.308 419.84L551.385 414.831L562.653 412.757L556.166 403.302L558.257 398.258Z" fill="black"/>
<path d="M541.69 434.832L564.265 448.653L562.182 452.055L541.411 450.072L552.622 467.67L550.54 471.072L527.964 457.25L530.124 453.723L544.594 462.582L534.366 446.794L535.288 445.289L553.99 447.234L539.52 438.375L541.69 434.832Z" fill="black"/>
<path d="M525.997 459.899L541.997 482.578L538.065 487.74L511.951 478.338L514.714 474.712L538.195 483.079L537.594 483.868L523.235 463.525L525.997 459.899ZM527.741 467.074L531.031 469.58L522.61 480.635L519.32 478.129L527.741 467.074Z" fill="black"/>
<path d="M510.287 480.119L529.871 497.928L522.512 506.02C522.339 506.21 522.108 506.447 521.817 506.729C521.536 507.02 521.258 507.272 520.981 507.485C519.779 508.461 518.553 509.053 517.305 509.26C516.049 509.476 514.816 509.356 513.605 508.902C512.396 508.465 511.252 507.756 510.173 506.775C508.577 505.324 507.571 503.671 507.153 501.817C506.744 499.972 507.163 498.091 508.408 496.175L509.559 494.663L514.147 489.618L507.306 483.397L510.287 480.119ZM500.059 491.367L511.541 494.751L509.246 498.751L496.683 495.079L500.059 491.367ZM517.207 492.4L512.953 497.079C512.788 497.26 512.612 497.472 512.424 497.715C512.236 497.958 512.082 498.2 511.964 498.44C511.605 499.107 511.458 499.752 511.522 500.374C511.578 501.004 511.766 501.581 512.085 502.104C512.397 502.635 512.761 503.091 513.178 503.47C513.595 503.849 514.083 504.169 514.642 504.429C515.202 504.706 515.798 504.842 516.431 504.838C517.056 504.843 517.684 504.635 518.315 504.215C518.542 504.074 518.764 503.894 518.979 503.676C519.203 503.466 519.398 503.27 519.562 503.089L523.817 498.41L517.207 492.4Z" fill="black"/>
<path d="M494.215 497.403L512.235 516.793L508.99 519.809L500.631 510.814L501.247 527.004L497.261 530.708L496.762 513.456L478.676 511.844L482.797 508.014L499.379 509.467L490.97 500.419L494.215 497.403Z" fill="black"/>
<path d="M477.744 512.381L494.155 533.149L480.742 543.748L478.166 540.489L488.103 532.636L484.058 527.516L475.851 534.001L473.275 530.741L481.482 524.257L476.844 518.387L466.906 526.239L464.331 522.979L477.744 512.381Z" fill="black"/>
<path d="M455.527 529.02L467.948 547.56L475.065 542.792L477.377 546.243L459.463 558.244L457.151 554.793L464.268 550.025L451.847 531.486L455.527 529.02Z" fill="black"/>
<path d="M438.206 540.067L443.055 567.395L437.302 570.397L417.657 550.792L421.698 548.682L439.4 566.233L438.52 566.692L434.165 542.176L438.206 540.067ZM436.737 547.303L438.65 550.97L426.33 557.399L424.417 553.733L436.737 547.303Z" fill="black"/>
<path d="M406.729 554.657C408.516 553.912 410.257 553.55 411.953 553.573C413.637 553.601 415.184 553.998 416.593 554.764C417.995 555.547 419.153 556.684 420.067 558.175L416.095 560.589C415.129 559.292 413.921 558.482 412.471 558.157C411.01 557.837 409.544 557.984 408.074 558.597C407.203 558.961 406.44 559.439 405.784 560.031C405.128 560.623 404.671 561.279 404.413 561.997C404.144 562.72 404.167 563.461 404.483 564.218C404.625 564.558 404.811 564.845 405.042 565.081C405.278 565.328 405.556 565.517 405.877 565.649C406.186 565.785 406.554 565.871 406.98 565.906C407.399 565.956 407.864 565.955 408.373 565.902L415.462 565.135C416.071 565.067 416.747 565.031 417.488 565.027C418.224 565.039 418.971 565.159 419.73 565.386C420.482 565.63 421.19 566.038 421.854 566.611C422.511 567.2 423.064 568.032 423.513 569.106C424.168 570.678 424.322 572.161 423.974 573.554C423.619 574.964 422.88 576.215 421.756 577.308C420.62 578.406 419.225 579.294 417.569 579.971C415.89 580.658 414.277 580.993 412.729 580.975C411.186 580.968 409.752 580.617 408.426 579.922C407.1 579.227 405.943 578.203 404.953 576.849L409.028 574.253C409.568 575.037 410.223 575.62 410.993 576.002C411.757 576.401 412.578 576.603 413.457 576.608C414.324 576.618 415.181 576.46 416.027 576.133C416.846 575.805 417.552 575.364 418.145 574.811C418.731 574.275 419.14 573.679 419.371 573.025C419.592 572.375 419.57 571.734 419.305 571.1C419.055 570.501 418.669 570.085 418.147 569.851C417.629 569.629 417.057 569.516 416.431 569.511C415.799 569.523 415.175 569.571 414.559 569.655L409.673 570.259C409.007 570.351 408.245 570.417 407.385 570.457C406.525 570.497 405.649 570.418 404.756 570.219C403.864 570.021 403.031 569.618 402.26 569.01C401.477 568.407 400.831 567.495 400.322 566.273C399.793 565.007 399.594 563.782 399.725 562.599C399.848 561.432 400.225 560.345 400.854 559.339C401.484 558.333 402.309 557.431 403.33 556.633C404.341 555.84 405.473 555.181 406.729 554.657Z" fill="black"/>
<path d="M394.677 560.022L402.77 585.225L392.356 588.569C392.111 588.647 391.792 588.737 391.4 588.837C391.011 588.949 390.644 589.028 390.298 589.075C388.769 589.322 387.412 589.223 386.227 588.78C385.03 588.34 384.021 587.622 383.198 586.625C382.368 585.643 381.73 584.458 381.285 583.069C380.842 581.692 380.671 580.357 380.771 579.064C380.874 577.782 381.284 576.614 382.001 575.56C382.706 574.51 383.747 573.642 385.123 572.956C385.434 572.804 385.785 572.653 386.174 572.502C386.551 572.355 386.857 572.244 387.09 572.169L393.286 570.18L390.459 561.377L394.677 560.022ZM394.55 574.118L388.53 576.051C388.296 576.126 388.038 576.222 387.753 576.339C387.469 576.456 387.216 576.589 386.993 576.738C386.349 577.137 385.9 577.623 385.646 578.193C385.38 578.768 385.255 579.361 385.272 579.974C385.277 580.59 385.365 581.167 385.537 581.703C385.71 582.24 385.973 582.76 386.328 583.264C386.675 583.784 387.124 584.199 387.675 584.512C388.214 584.828 388.862 584.961 389.618 584.911C389.885 584.902 390.167 584.857 390.462 584.775C390.761 584.705 391.028 584.632 391.261 584.557L397.282 582.624L394.55 574.118Z" fill="black"/>
<path d="M372.961 566.724L378.959 592.506L362.309 596.379L361.367 592.333L373.703 589.463L372.224 583.107L362.037 585.477L361.096 581.431L371.283 579.061L369.588 571.774L357.252 574.644L356.311 570.598L372.961 566.724Z" fill="black"/>
<path d="M354.365 571.035L347.456 585.588L357.995 597.256L352.631 598.052L345.299 589.718L340.757 599.813L335.357 600.614L342.055 586.39L331.255 574.463L336.619 573.667L344.193 582.263L348.965 571.836L354.365 571.035Z" fill="black"/>
<path d="M306.615 575.85L305.672 602.304L301.685 602.162L293.205 583.098L283.388 601.509L279.402 601.367L280.345 574.914L284.479 575.061L283.874 592.017L292.598 575.351L294.362 575.414L301.859 592.658L302.463 575.702L306.615 575.85Z" fill="black"/>
<path d="M276.983 574.499L265.096 599.579L258.668 598.691L254.021 571.328L258.537 571.952L262.791 596.514L261.808 596.378L272.467 573.875L276.983 574.499ZM271.592 579.544L271.026 583.641L257.26 581.74L257.826 577.643L271.592 579.544Z" fill="black"/>
<path d="M251.787 570.777L245.896 596.583L235.233 594.149C234.982 594.091 234.662 594.006 234.273 593.892C233.882 593.79 233.525 593.671 233.204 593.535C231.763 592.967 230.645 592.19 229.852 591.205C229.047 590.216 228.545 589.084 228.347 587.806C228.133 586.538 228.189 585.194 228.513 583.772C228.993 581.669 229.938 579.981 231.348 578.706C232.755 577.443 234.599 576.884 236.879 577.027L238.761 577.287L245.41 578.805L247.468 569.791L251.787 570.777ZM236.966 567.393L239.658 579.057L235.047 579.022L232.074 566.277L236.966 567.393ZM244.49 582.837L238.325 581.43C238.086 581.375 237.814 581.326 237.51 581.282C237.206 581.237 236.92 581.222 236.653 581.237C235.895 581.252 235.261 581.441 234.752 581.802C234.23 582.161 233.82 582.608 233.522 583.143C233.212 583.675 232.994 584.216 232.868 584.766C232.743 585.316 232.704 585.898 232.753 586.512C232.786 587.136 232.96 587.722 233.275 588.272C233.577 588.818 234.067 589.263 234.742 589.606C234.977 589.735 235.242 589.839 235.538 589.92C235.831 590.012 236.097 590.085 236.336 590.139L242.501 591.547L244.49 582.837Z" fill="black"/>
<path d="M228.725 565.231L220.648 590.439L216.43 589.087L220.176 577.393L206.364 585.862L201.182 584.201L215.978 575.315L208.524 558.758L213.881 560.475L220.737 575.643L224.507 563.879L228.725 565.231Z" fill="black"/>
<path d="M207.698 558.247L197.616 582.721L181.809 576.21L183.391 572.368L195.102 577.193L197.587 571.159L187.917 567.175L189.499 563.334L199.17 567.318L202.02 560.4L190.309 555.576L191.892 551.735L207.698 558.247Z" fill="black"/>
<path d="M182.288 546.99L172.182 566.886L179.819 570.766L177.938 574.47L158.714 564.705L160.595 561.001L168.232 564.88L178.339 544.984L182.288 546.99Z" fill="black"/>
<path d="M164.172 537.265L142.696 554.846L137.266 551.294L144.775 524.574L148.59 527.07L141.925 551.09L141.094 550.547L160.357 534.769L164.172 537.265ZM157.141 539.518L154.876 542.979L143.247 535.37L145.512 531.909L157.141 539.518Z" fill="black"/>
<path d="M136.114 516.972C137.639 518.165 138.806 519.507 139.616 520.997C140.416 522.48 140.827 524.023 140.847 525.627C140.851 527.233 140.426 528.799 139.573 530.326L135.524 528.043C136.182 526.566 136.298 525.116 135.872 523.692C135.436 522.261 134.59 521.055 133.336 520.073C132.593 519.491 131.803 519.059 130.965 518.777C130.128 518.495 129.333 518.417 128.58 518.544C127.818 518.663 127.183 519.045 126.677 519.692C126.451 519.981 126.291 520.285 126.199 520.601C126.099 520.928 126.07 521.263 126.112 521.607C126.144 521.944 126.249 522.306 126.427 522.695C126.588 523.085 126.817 523.49 127.112 523.908L131.25 529.715C131.607 530.213 131.969 530.784 132.336 531.429C132.685 532.076 132.946 532.787 133.119 533.56C133.274 534.335 133.265 535.153 133.09 536.012C132.898 536.873 132.443 537.762 131.726 538.679C130.675 540.02 129.458 540.88 128.072 541.258C126.669 541.638 125.216 541.606 123.713 541.16C122.2 540.707 120.743 539.925 119.342 538.812C117.921 537.684 116.84 536.441 116.099 535.082C115.349 533.733 114.954 532.31 114.911 530.814C114.869 529.318 115.195 527.807 115.891 526.282L120.15 528.566C119.73 529.42 119.542 530.276 119.586 531.135C119.612 531.996 119.838 532.811 120.263 533.58C120.679 534.341 121.236 535.011 121.935 535.589C122.622 536.143 123.352 536.543 124.124 536.789C124.878 537.038 125.598 537.103 126.282 536.985C126.956 536.859 127.505 536.526 127.928 535.986C128.328 535.474 128.502 534.934 128.45 534.364C128.391 533.804 128.21 533.25 127.908 532.702C127.588 532.156 127.241 531.635 126.866 531.139L123.948 527.174C123.542 526.638 123.112 526.005 122.656 525.275C122.201 524.545 121.841 523.742 121.577 522.866C121.314 521.99 121.258 521.068 121.41 520.097C121.553 519.12 122.033 518.11 122.849 517.068C123.695 515.987 124.666 515.214 125.761 514.749C126.84 514.286 127.972 514.083 129.157 514.139C130.342 514.196 131.533 514.474 132.728 514.975C133.915 515.467 135.043 516.133 136.114 516.972Z" fill="black"/>
<path d="M125.44 509.01L107.433 528.411L99.4166 520.97C99.228 520.795 98.9938 520.561 98.7141 520.268C98.426 519.984 98.1771 519.703 97.9673 519.425C97.0029 518.212 96.4238 516.98 96.2298 515.73C96.0268 514.472 96.1587 513.24 96.6254 512.034C97.0748 510.83 97.7956 509.693 98.7876 508.624C99.7714 507.564 100.851 506.761 102.028 506.214C103.196 505.676 104.415 505.462 105.685 505.571C106.946 505.671 108.212 506.153 109.485 507.016C109.769 507.214 110.073 507.445 110.395 507.711C110.708 507.968 110.954 508.18 111.134 508.346L115.903 512.773L122.193 505.996L125.44 509.01ZM113.09 515.805L108.455 511.503C108.275 511.336 108.065 511.157 107.824 510.967C107.583 510.777 107.343 510.621 107.104 510.5C106.44 510.134 105.797 509.98 105.175 510.038C104.544 510.088 103.965 510.27 103.439 510.584C102.904 510.89 102.445 511.25 102.062 511.663C101.678 512.076 101.354 512.561 101.088 513.117C100.805 513.674 100.663 514.269 100.66 514.902C100.649 515.527 100.85 516.156 101.264 516.791C101.403 517.02 101.58 517.244 101.796 517.461C102.004 517.687 102.198 517.884 102.378 518.051L107.012 522.352L113.09 515.805Z" fill="black"/>
<path d="M109.034 493.442L89.5218 511.329L77.9696 498.728L81.0319 495.92L89.5904 505.256L94.4006 500.846L87.3327 493.137L90.3949 490.329L97.4629 498.039L102.978 492.984L94.4191 483.648L97.4814 480.84L109.034 493.442Z" fill="black"/>
<path d="M96.0763 479.278L80.0058 480.413L75.0243 495.326L71.695 491.046L75.3498 480.565L64.3255 481.571L60.9737 477.262L76.654 476.104L81.7323 460.836L85.0615 465.117L81.2988 475.938L92.7245 474.969L96.0763 479.278Z" fill="black"/>
<path d="M68.6189 440.418L45.1152 452.593L43.2804 449.051L55.7182 432.299L34.8591 432.795L33.0243 429.253L56.528 417.077L58.4304 420.75L43.3652 428.554L62.1676 427.964L62.9793 429.531L51.6428 444.533L66.708 436.729L68.6189 440.418Z" fill="black"/>
<path d="M55.2594 413.985L27.5729 415.926L25.1937 409.89L46.76 392.42L48.4316 396.661L29.1132 412.415L28.7492 411.491L53.5878 409.744L55.2594 413.985ZM48.2184 411.761L44.3705 413.277L39.2749 400.349L43.1228 398.832L48.2184 411.761Z" fill="black"/>
<path d="M46.1224 390.136L20.7397 397.645L17.637 387.157C17.564 386.91 17.4819 386.59 17.3907 386.195C17.2877 385.804 17.2169 385.435 17.1783 385.088C16.9671 383.553 17.0967 382.199 17.5672 381.024C18.0342 379.838 18.7757 378.846 19.7917 378.047C20.7926 377.24 21.9922 376.629 23.3906 376.215C25.4588 375.604 27.3938 375.6 29.1956 376.204C30.9856 376.812 32.3768 378.145 33.369 380.203L34.0647 381.971L35.9993 388.511L44.8656 385.888L46.1224 390.136ZM41.8099 375.559L32.9615 383.62L30.7321 379.584L40.3863 370.747L41.8099 375.559ZM32.0333 389.684L30.2395 383.621C30.1699 383.386 30.08 383.125 29.9696 382.838C29.8591 382.551 29.7322 382.295 29.5887 382.069C29.2038 381.416 28.729 380.956 28.1643 380.688C27.5961 380.409 27.0056 380.271 26.3928 380.273C25.7766 380.264 25.1983 380.339 24.6577 380.499C24.1171 380.659 23.5909 380.91 23.079 381.253C22.5519 381.588 22.1259 382.027 21.801 382.571C21.4726 383.102 21.3246 383.747 21.3569 384.504C21.3594 384.772 21.3983 385.054 21.4734 385.351C21.5368 385.652 21.6033 385.92 21.6728 386.155L23.4667 392.219L32.0333 389.684Z" fill="black"/>
<path d="M39.6436 367.253L13.7106 372.558L12.8227 368.218L24.8527 365.757L10.7044 357.863L9.61389 352.532L24.6087 361.079L35.3922 346.47L36.5195 351.981L26.6536 365.388L38.7557 362.913L39.6436 367.253Z" fill="black"/>
<path d="M35.4552 345.622L9.18172 348.841L7.10235 331.873L11.2258 331.368L12.7664 343.939L19.2435 343.145L17.9713 332.763L22.0948 332.258L23.367 342.64L30.7929 341.73L29.2524 329.159L33.3759 328.653L35.4552 345.622Z" fill="black"/>
<path d="M32.7905 317.945L10.4959 318.917L10.869 327.475L6.71864 327.656L5.77952 306.114L9.92991 305.933L10.303 314.491L32.5975 313.519L32.7905 317.945Z" fill="black"/>
<path d="M32.3649 296.917L6.50019 286.851L6.9264 280.376L33.8875 273.787L33.588 278.336L9.39234 284.333L9.45753 283.343L32.6644 292.368L32.3649 296.917ZM26.9476 291.9L22.8206 291.628L23.7334 277.761L27.8604 278.033L26.9476 291.9Z" fill="black"/>
<path d="M36.2385 262.551C35.9483 264.466 35.3534 266.142 34.4538 267.579C33.556 269.005 32.4139 270.121 31.0274 270.927C29.6307 271.719 28.0579 272.119 26.3091 272.127L26.3072 267.479C27.9169 267.326 29.2367 266.714 30.2666 265.643C31.2984 264.56 31.9337 263.231 32.1724 261.656C32.3138 260.723 32.3016 259.823 32.1357 258.955C31.9698 258.087 31.6467 257.356 31.1665 256.763C30.6882 256.157 30.0431 255.793 29.2313 255.67C28.8678 255.615 28.5254 255.625 28.2041 255.7C27.8708 255.774 27.5645 255.913 27.2855 256.119C27.0083 256.312 26.7442 256.582 26.4935 256.928C26.2324 257.26 25.9924 257.658 25.7736 258.12L22.7496 264.578C22.4918 265.134 22.1721 265.73 21.7906 266.367C21.3988 266.989 20.9086 267.565 20.32 268.096C19.7212 268.612 19.0046 269.006 18.1704 269.276C17.3259 269.532 16.3281 269.573 15.1771 269.399C13.4929 269.143 12.1457 268.505 11.1353 267.484C10.1147 266.45 9.42887 265.168 9.07796 263.64C8.72888 262.1 8.69447 260.446 8.97472 258.679C9.25865 256.888 9.81004 255.335 10.6289 254.021C11.4356 252.706 12.4801 251.662 13.7623 250.89C15.0445 250.117 16.5207 249.659 18.1909 249.516L18.2952 254.347C17.345 254.401 16.5066 254.658 15.7799 255.118C15.043 255.564 14.4443 256.162 13.9839 256.91C13.5252 257.646 13.2158 258.46 13.0557 259.353C12.9113 260.224 12.9216 261.056 13.0864 261.849C13.2409 262.629 13.5377 263.287 13.9768 263.825C14.4177 264.35 14.9775 264.664 15.656 264.767C16.2981 264.865 16.8546 264.751 17.3253 264.425C17.7839 264.098 18.1775 263.668 18.5062 263.136C18.8245 262.589 19.1075 262.031 19.355 261.461L21.3743 256.97C21.6412 256.354 21.9807 255.668 22.3927 254.912C22.8047 254.157 23.3273 253.449 23.9603 252.789C24.5933 252.128 25.3697 251.626 26.2895 251.282C27.2111 250.926 28.3262 250.848 29.6347 251.046C30.9917 251.252 32.142 251.717 33.0856 252.443C34.0189 253.154 34.7522 254.04 35.2856 255.1C35.8191 256.16 36.1617 257.334 36.3137 258.621C36.4674 259.896 36.4424 261.206 36.2385 262.551Z" fill="black"/>
<path d="M37.9116 249.425L12.1684 243.265L14.7139 232.628C14.7738 232.377 14.8628 232.059 14.9807 231.671C15.0867 231.28 15.2095 230.926 15.3489 230.606C15.9319 229.17 16.7203 228.061 17.714 227.278C18.7107 226.484 19.8486 225.994 21.1278 225.808C22.398 225.608 23.7422 225.678 25.1604 226.017C26.5668 226.354 27.7969 226.9 28.8508 227.657C29.8927 228.41 30.6782 229.367 31.2071 230.526C31.7388 231.674 31.9411 233.014 31.8139 234.546C31.7817 234.891 31.729 235.269 31.6559 235.68C31.5856 236.079 31.5219 236.398 31.4649 236.636L29.9504 242.965L38.9427 245.117L37.9116 249.425ZM25.928 242.002L27.3997 235.853C27.4568 235.614 27.509 235.343 27.5565 235.04C27.604 234.736 27.6219 234.45 27.6103 234.183C27.6026 233.425 27.4208 232.789 27.0649 232.276C26.7119 231.75 26.2693 231.336 25.7371 231.032C25.2078 230.716 24.6691 230.493 24.1208 230.362C23.5726 230.23 22.991 230.186 22.3762 230.228C21.7523 230.255 21.164 230.423 20.6112 230.731C20.0614 231.028 19.6115 231.513 19.2616 232.185C19.1302 232.418 19.0229 232.682 18.9397 232.977C18.8445 233.27 18.7684 233.535 18.7114 233.773L17.2397 239.923L25.928 242.002Z" fill="black"/>
<path d="M43.4493 227.404L18.2978 219.153L23.6261 202.91L27.5735 204.204L23.626 216.239L29.8265 218.273L33.0865 208.334L37.0339 209.629L33.7739 219.568L40.8827 221.899L44.8302 209.865L48.7776 211.16L43.4493 227.404Z" fill="black"/>
<path d="M49.4079 209.286L40.5545 195.826L25.1112 198.778L27.2151 193.781L38.144 191.84L31.8723 182.717L33.9905 177.686L42.6727 190.794L58.4726 187.752L56.3687 192.75L45.0903 194.764L51.5261 204.254L49.4079 209.286Z" fill="black"/>
<path d="M69.9132 166.276L47.8067 151.717L50.0007 148.385L70.6945 151.053L60.0708 133.095L62.2648 129.764L84.3712 144.323L82.0964 147.777L67.9268 138.445L77.6275 154.562L76.6569 156.036L58.0286 153.474L72.1982 162.806L69.9132 166.276Z" fill="black"/>
<path d="M86.4426 141.714L71.2009 118.519L75.3013 113.49L101.09 123.749L98.2095 127.282L75.0169 118.144L75.6442 117.375L89.3233 138.181L86.4426 141.714ZM84.9364 134.485L81.7309 131.872L90.5125 121.101L93.718 123.715L84.9364 134.485Z" fill="black"/>
<path d="M102.809 122.029L83.8222 103.585L91.4431 95.7402C91.6224 95.5556 91.8617 95.3268 92.1611 95.0538C92.4516 94.7723 92.7384 94.5298 93.0215 94.3263C94.2558 93.3898 95.5001 92.8388 96.7543 92.6733C98.0171 92.499 99.2457 92.6588 100.44 93.1528C101.634 93.6295 102.754 94.3758 103.8 95.392C105.347 96.8948 106.299 98.5796 106.656 100.446C107.003 102.305 106.523 104.17 105.216 106.044L104.015 107.517L99.2635 112.409L105.896 118.851L102.809 122.029ZM113.401 111.125L102.037 107.364L104.463 103.442L116.898 107.525L113.401 111.125ZM96.2968 109.527L100.703 104.991C100.874 104.816 101.057 104.609 101.253 104.372C101.449 104.136 101.61 103.899 101.736 103.664C102.117 103.008 102.285 102.369 102.242 101.745C102.206 101.113 102.038 100.531 101.735 99.9977C101.441 99.456 101.092 98.9887 100.688 98.596C100.284 98.2032 99.8065 97.8678 99.2565 97.5898C98.7063 97.2944 98.1147 97.1383 97.4818 97.1215C96.8575 97.0959 96.2232 97.2828 95.579 97.6821C95.347 97.8155 95.1198 97.9877 94.8976 98.199C94.6665 98.4016 94.4656 98.5909 94.2948 98.7667L89.8888 103.302L96.2968 109.527Z" fill="black"/>
<path d="M119.443 105.283L102.072 85.31L105.415 82.4029L113.473 91.6682L113.39 75.4667L117.496 71.8961L117.427 89.1554L135.449 91.3626L131.205 95.0539L114.679 93.0552L122.786 102.376L119.443 105.283Z" fill="black"/>
<path d="M136.406 90.8489L120.69 69.5489L134.447 59.3994L136.913 62.7423L126.722 70.2617L130.596 75.5127L139.012 69.303L141.479 72.6459L133.062 78.8556L137.504 84.8759L147.696 77.3565L150.162 80.6994L136.406 90.8489Z" fill="black"/>
<path d="M159.129 74.9749L147.327 56.0354L140.057 60.5657L137.86 57.0399L156.16 45.6364L158.357 49.1622L151.087 53.6925L162.889 72.632L159.129 74.9749Z" fill="black"/>
<path d="M176.857 64.4819L172.923 37.0077L178.772 34.1991L197.753 54.4488L193.643 56.422L176.536 38.2906L177.431 37.8609L180.967 62.5087L176.857 64.4819ZM178.567 57.2988L176.777 53.5704L189.304 47.5553L191.095 51.2838L178.567 57.2988Z" fill="black"/>
<path d="M208.713 50.9837C206.902 51.6696 205.15 51.9731 203.456 51.8941C201.773 51.8108 200.241 51.3627 198.858 50.5498C197.483 49.7211 196.363 48.5466 195.499 47.0262L199.549 44.745C200.471 46.073 201.651 46.9231 203.09 47.2955C204.54 47.6636 206.01 47.5655 207.499 47.0011C208.382 46.6668 209.16 46.2145 209.836 45.6443C210.511 45.074 210.989 44.4342 211.271 43.7247C211.564 43.0109 211.565 42.27 211.274 41.5022C211.144 41.1584 210.967 40.865 210.744 40.6219C210.516 40.3673 210.245 40.1689 209.929 40.0265C209.624 39.8798 209.259 39.7821 208.835 39.7333C208.417 39.6687 207.953 39.6545 207.443 39.6906L200.332 40.2222C199.721 40.2701 199.045 40.2839 198.303 40.2634C197.568 40.2271 196.826 40.0826 196.075 39.8298C195.331 39.5612 194.637 39.1297 193.992 38.5351C193.355 37.9248 192.83 37.0753 192.417 35.9866C191.814 34.3937 191.709 32.9067 192.103 31.5255C192.505 30.1286 193.285 28.9025 194.445 27.8473C195.616 26.7877 197.04 25.9468 198.718 25.3244C200.418 24.6933 202.041 24.4125 203.588 24.4819C205.13 24.5399 206.552 24.9382 207.854 25.6768C209.156 26.4154 210.279 27.4773 211.223 28.8626L207.064 31.3227C206.551 30.5212 205.915 29.9166 205.158 29.5089C204.408 29.0855 203.594 28.8565 202.716 28.8222C201.85 28.7835 200.988 28.9133 200.131 29.2117C199.302 29.5128 198.582 29.9297 197.971 30.4624C197.368 30.9794 196.939 31.561 196.686 32.2073C196.444 32.8492 196.445 33.4911 196.688 34.1328C196.918 34.7402 197.29 35.1692 197.805 35.42C198.315 35.6592 198.882 35.7914 199.508 35.8166C200.14 35.8259 200.766 35.7987 201.384 35.735L206.288 35.2926C206.956 35.2229 207.72 35.1824 208.581 35.1709C209.441 35.1594 210.314 35.2676 211.2 35.4956C212.086 35.7235 212.904 36.154 213.655 36.7868C214.417 37.4154 215.033 38.3485 215.502 39.5862C215.988 40.8697 216.146 42.1005 215.977 43.2786C215.814 44.441 215.402 45.5145 214.739 46.4992C214.077 47.4839 213.222 48.3581 212.175 49.1218C211.139 49.8812 209.985 50.5018 208.713 50.9837Z" fill="black"/>
<path d="M221.014 45.9956L213.769 20.5363L224.289 17.5427C224.536 17.4723 224.858 17.3935 225.253 17.3064C225.646 17.2075 226.015 17.1406 226.362 17.1056C227.899 16.9103 229.252 17.054 230.422 17.5366C231.603 18.0159 232.588 18.7677 233.376 19.792C234.173 20.8012 234.771 22.0071 235.17 23.4097C235.566 24.8005 235.692 26.1405 235.55 27.4298C235.403 28.7073 234.955 29.8607 234.203 30.8901C233.463 31.9161 232.394 32.7491 230.996 33.3889C230.679 33.53 230.324 33.6693 229.93 33.807C229.548 33.9412 229.239 34.0419 229.003 34.109L222.744 35.89L225.275 44.7831L221.014 45.9956ZM221.612 31.912L227.694 30.1813C227.93 30.1142 228.192 30.0269 228.48 29.9195C228.768 29.8121 229.025 29.6878 229.253 29.5466C229.91 29.1686 230.375 28.6986 230.648 28.1367C230.933 27.5714 231.078 26.9824 231.082 26.3696C231.097 25.7536 231.028 25.1744 230.874 24.6322C230.72 24.0901 230.473 23.5612 230.136 23.0458C229.806 22.5152 229.372 22.0846 228.832 21.7541C228.303 21.4203 227.661 21.2656 226.903 21.29C226.635 21.2897 226.353 21.3256 226.055 21.3977C225.753 21.458 225.485 21.5217 225.249 21.5887L219.167 23.3195L221.612 31.912Z" fill="black"/>
<path d="M242.983 40.0138L237.853 14.0455L254.624 10.7326L255.429 14.8082L243.004 17.2626L244.269 23.6645L254.53 21.6376L255.335 25.7132L245.074 27.7401L246.524 35.0797L258.949 32.6253L259.754 36.7009L242.983 40.0138Z" fill="black"/>
<path d="M261.614 36.347L269 22.0293L258.851 10.0203L264.238 9.40192L271.291 17.9733L276.164 8.03319L281.587 7.41066L274.424 21.4068L284.825 33.6829L279.438 34.3013L272.15 25.4607L267.038 35.7245L261.614 36.347Z" fill="black"/>
</svg>
