<svg width="711" height="618" viewBox="0 0 711 618" fill="none" xmlns="http://www.w3.org/2000/svg">
<path d="M719.751 77.1469C674.117 51.7205 630.674 32.2082 580.244 18.8662C563.834 14.5248 550.285 9.34399 534.82 18.3263C503.179 36.7041 479.756 58.4181 451.159 80.6917C426.314 100.043 408.252 124.861 384.428 144.963C346.13 177.28 280.877 153.385 237.817 141.993C192.018 129.876 129.345 119.233 87.6962 147.791C66.4745 162.343 54.1884 177.411 43.4547 201.192C17.6466 258.373 9.70221 330.589 15.9538 392.005C23.5925 467.047 56.4507 555.384 128.489 591.172C189.661 621.561 236.06 598.156 284.429 556.636C325.222 521.621 360.239 478.164 389.443 433.033C413.916 395.212 442.342 352.792 476.574 323.103C522.688 283.108 597.528 274.383 655.551 285.361C681.932 290.352 706.761 299.378 725.993 318.641C730.513 323.169 732.894 327.937 738.086 331.339" stroke="url(#paint0_linear_1503_57233)" stroke-width="26" stroke-linecap="round"/>
<defs>
<linearGradient id="paint0_linear_1503_57233" x1="1913.18" y1="-103.487" x2="-319.316" y2="312.513" gradientUnits="userSpaceOnUse">
<stop stop-color="#33B9C0"/>
<stop offset="0.996561" stop-color="white"/>
</linearGradient>
</defs>
</svg>
